<?xml version="1.0" encoding="UTF-8"?>
<svg id="Layer_2" data-name="Layer 2" xmlns="http://www.w3.org/2000/svg" viewBox="0 0 301.56 553.1">
  <defs>
    <style>
      .cls-1 {
        fill: #fff;
      }
    </style>
  </defs>
  <g id="Layer_1-2" data-name="Layer 1">
    <g>
      <g>
        <path class="cls-1" d="M71.81,508.51h27.39v4.1h-22.79v17.98h20.1v4.1h-20.1v18.4h-4.6v-44.59Z"/>
        <path class="cls-1" d="M122.34,508.51h5.8l17.13,44.59h-5.03l-4.46-11.96h-21.09l-4.53,11.96h-4.95l17.13-44.59ZM134.23,537.03l-8.99-23.92-8.99,23.92h17.98Z"/>
        <path class="cls-1" d="M159.29,508.51h6.51l22.44,38.64v-38.64h4.6v44.59h-6.51l-22.44-38.72v38.72h-4.6v-44.59Z"/>
        <path class="cls-1" d="M222.78,508.51h12.17l16.7,44.59h-10.55l-3.04-8.85h-18.47l-3.04,8.85h-10.48l16.7-44.59ZM235.45,536.68l-6.58-19.25-6.65,19.25h13.24Z"/>
        <path class="cls-1" d="M263.13,508.51h17.62c14.72,0,19.11,5.31,19.11,13.94,0,6.87-3.75,11.25-9.56,13.31l11.25,17.34h-12.1l-9.41-15.71h-6.94v15.71h-9.98v-44.59ZM280.75,529.74c3.75,0,5.95-.49,7.43-1.13,1.13-1.56,1.63-3.47,1.63-5.87,0-3.89-2.05-6.58-9.06-6.58h-7.64v13.59h7.64Z"/>
      </g>
      <g>
        <path class="cls-1" d="M175.88,310.23c.31,2.07.12,4.4,1.02,6.17,3.06,6,6.3,11.92,9.85,17.64,4.09,6.57,8.27,13.15,7.87,21.19-.67,13.47-.19,27.43-8.25,39.17-4.81,7-10.25,13.87-16.63,19.4-11.65,10.1-24.04,19.38-36.44,28.57-9.31,6.9-18.98,13.35-28.75,19.59-14.38,9.19-29.43,19.71-46.09,25.34-17.45,5.9-37.11,7.44-55.21,10.67-.95.17-1.92.29-3.26-.41,3.55-1.92,6.99-4.14,10.68-5.72,20.45-8.76,40.13-19.01,59.23-30.38,27.48-16.37,53.99-34.19,79.72-53.18,11.94-8.81,23.9-17.6,33.16-29.36,9.22-11.69,8.08-10.23,1.69-21.27-2.74-4.74-6.2-9.07-9.1-13.73-4.79-7.7-5.41-16.06-3.39-24.73.7-3.02,1.41-6.04,2.11-9.05.59.04,1.18.07,1.78.11Z"/>
        <path class="cls-1" d="M202.85,330.07c-.09-.75-.18-1.21-.2-1.68-.89-17.95-1.18-35.95-2.83-53.82-3.01-32.61-3.69-65.38-6.25-98.03-1.23-15.67-1.37-31.42-2.02-47.13-.92-22.22-1.87-44.45-2.8-66.67-.54-12.91-1.36-25.82-1.48-38.73-.09-9.29,5.16-16.63,9.86-24.02.4.08.8.16,1.19.24.18,3.19.37,6.39.54,9.58,1.07,19.69,2.07,39.39,3.2,59.08,3.18,55.05,6.24,110.1,9.21,165.16,1.05,19.42,2.2,38.84,3.39,58.26.83,13.58-3.69,25.59-10.55,36.95-.16.27-.59.39-1.26.81Z"/>
        <path class="cls-1" d="M280.04,195.53c-10.37-10.31-23.44-11.05-32.72-1.74-9.83,9.86-13.35,22.5-13.5,36.29-.03,2.98,1.59,6.39,3.35,8.86,4.62,6.47,11.75,7.54,18.75,8.43,7.35.94,14.84,1.56,21.25,5.78,3.35,2.2,6.03,5.54,9.49,8.81-.64-.6.8-7.74.86-9.09.2-4-.21-7.47-1.34-11.27-1.65-5.55-4.2-10.98-9.62-13.19-7.42-3.03-15.56-2.82-23.33-4.04-2.09-.33-4.17-.84-6.22-1.44-3.35-.98-3.59-1.97-1.4-4.98,6.77-9.25,16.18-10.33,25.22-2.13,12.04,10.91,20.4,29.64,21.84,46.47.24,2.77,1.62,16.88-.64,18.55,1.2-.89,1.67-1.04,1.75-1.32,4.34-15.13,9.05-30.71,6.2-46.88-2.55-14.47-9.96-27.18-19.95-37.11Z"/>
      </g>
      <path class="cls-1" d="M273.11,349.42c.79-1.85,1.48-3.75,2.39-5.54,5.02-9.91,7.78-20.45,8.74-31.47,2.28-26.25-23.43-40.62-46.07-42.03-29.68-1.86-58.51,20.49-78.9,39.75-1.6,1.52-2.96,3.29-4.42,4.96-4.3,4.91-.96,10.15,2.5,14.34,4.15,5.04,8.15,10.2,11.96,15.51,4.88,6.8,9.56,13.22,8.47,22.05-.55,4.42-1.49,8.8-2.26,13.19l-.81.04c-.31-.4-.87-.79-.89-1.2-.25-6.5-4.2-11.98-8.08-16.9-5.58-7.07-12.61-14.4-15.91-22.88-3.42-8.77-3.46-18.69-.82-27.67,2.95-10.04,10.01-18.18,17.53-25.17,8.76-8.13,17.83-16.31,28.46-21.92,17.16-9.05,34.82-15.96,54.54-10.86,15.57,4.03,29.91,14.73,35.56,30.16,1.09,2.98,1.84,6.08,2.24,9.23,1.97,15.61-2.57,31.64-7.61,46.25-1.28,3.71-3.64,7.05-5.51,10.56-.36-.13-.72-.25-1.09-.38Z"/>
      <path class="cls-1" d="M277.6,382.36c-6.82-7.04-12.7-13.01-18.4-19.15-.56-.6-.47-2.56.09-3.32,3.6-4.9,7.42-9.62,11.14-14.43,1.42-1.84,2.81-2.07,4.48-.31,5.02,5.29,10.15,10.47,15.03,15.88.82.91,1.32,3.28.74,4.1-4.11,5.78-8.55,11.33-13.09,17.23Z"/>
      <path class="cls-1" d="M282.19,136.07v.27c-10.22,10.46-10.2,27.2.01,37.67h-.25s-.03,0-.03,0c-10.47-10.22-27.17-10.22-37.63-.01,0,0-.01-.01-.03,0v-.23c10.23-10.48,10.23-27.21,0-37.69h.28c10.46,10.2,27.16,10.2,37.62,0,0,0,.01.01.02,0Z"/>
    </g>
  </g>
</svg>