<svg xmlns="http://www.w3.org/2000/svg" width="201" height="104" viewBox="0 0 201 104" fill="none"><g clip-path="url(#clip0_2819_15397)"><mask id="mask0_2819_15397" style="mask-type:luminance" maskUnits="userSpaceOnUse" x="0" y="0" width="201" height="104"><path d="M200.037 0.000488281H0V103.866H200.037V0.000488281Z" fill="white"/></mask><g mask="url(#mask0_2819_15397)"><path d="M4.9119 51.0817V47.2574H1.79284V51.0817H0V41.9472H1.79284V45.6862H4.9119V41.9472H6.70474V51.0817H4.9119ZM14.0971 51.0817L13.5568 49.4618H10.2781L9.72556 51.0817H7.84676L11.1991 41.9472H12.6113L15.9759 51.0817H14.0971ZM11.9482 44.6388L10.7816 47.9638H13.0656L11.9359 44.6388H11.9482ZM23.6508 51.0817V45.7593L21.8948 49.2182H20.6791L18.9108 45.7593V51.0817H17.118V41.9472H18.8862L21.2931 46.892L23.6876 41.9472H25.4559V51.0817H23.6631H23.6508ZM32.836 51.0817L32.2957 49.4618H29.017L28.4645 51.0817H26.5856L29.938 41.9472H31.3502L34.7148 51.0817H32.836ZM30.6871 44.6388L29.5205 47.9638H31.8045L30.6748 44.6388H30.6871ZM41.6038 50.2048C41.0021 50.8137 40.1302 51.0817 39.1724 51.0817H35.8446V41.9472H39.1724C40.1302 41.9472 41.0021 42.2151 41.6038 42.8241C42.6353 43.8472 42.537 45.1138 42.537 46.4779C42.537 47.842 42.6353 49.1817 41.6038 50.2169M40.3512 44.1151C40.0443 43.7375 39.6267 43.5549 39.0005 43.5549H37.6374V49.5105H39.0005C39.6267 49.5105 40.032 49.3157 40.3512 48.9503C40.6828 48.5362 40.7442 47.8907 40.7442 46.5023C40.7442 45.1138 40.6951 44.5414 40.3512 44.1273M51.5381 51.106H47.6823V41.9715H51.3785C53.1713 41.9715 54.2274 42.9702 54.2274 44.5414C54.2274 45.5523 53.552 46.2099 53.0853 46.4292C53.6379 46.6849 54.3502 47.2574 54.3502 48.4753C54.3502 50.1804 53.1713 51.106 51.5258 51.106M51.2311 43.5549H49.4751V45.6619H51.2311C51.9924 45.6619 52.4222 45.2356 52.4222 44.6145C52.4222 43.9933 51.9924 43.567 51.2311 43.567M51.3539 47.2817H49.4751V49.5227H51.3539C52.1644 49.5227 52.5573 49.0112 52.5573 48.39C52.5573 47.7689 52.1644 47.2696 51.3539 47.2696M56.1921 41.9715H57.985V51.106H56.1921V41.9715ZM65.5861 51.106L61.939 45.5035V51.106H60.1462V41.9715H61.7426L65.3896 47.5619V41.9715H67.1825V51.106H65.5738H65.5861ZM77.6939 51.106L75.324 46.9529L74.1328 48.3657V51.1182H72.34V41.9837H74.1328V45.9664L77.387 41.9837H79.5728L76.5151 45.6132L79.7938 51.1182H77.6939V51.106ZM85.86 51.106V47.2817H82.7409V51.106H80.9481V41.9715H82.7409V45.7106H85.86V41.9715H87.6528V51.106H85.86ZM95.0452 51.106L94.5049 49.4862H91.2262L90.6736 51.106H88.7948L92.1472 41.9715H93.5594L96.924 51.106H95.0452ZM92.8963 44.6632L91.7297 47.9881H94.0137L92.884 44.6632H92.8963ZM98.0538 51.106V41.9715H99.8466V49.5227H104.022V51.1182H98.0415L98.0538 51.106ZM105.495 41.9715H107.288V51.106H105.495V41.9715ZM111.242 43.567V45.808H114.877V47.4035H111.242V51.106H109.449V41.9715H115.516V43.567H111.242ZM122.319 51.1182L121.778 49.4984H118.5L117.947 51.1182H116.068L119.421 41.9837H120.833L124.197 51.1182H122.319ZM120.17 44.6754L119.003 48.0003H121.287L120.157 44.6754H120.17ZM56.5973 66.8539C54.7063 66.8539 53.2081 65.5873 53.2081 63.6508V57.6463H55.001V63.5899C55.001 64.6373 55.6272 65.2706 56.5973 65.2706C57.5674 65.2706 58.206 64.6373 58.206 63.5899V57.6463H59.9866V63.6508C59.9866 65.5873 58.4884 66.8539 56.5973 66.8539ZM67.4404 66.7808L63.7933 61.1784V66.7808H62.0004V57.6463H63.6091L67.2562 63.2367V57.6463H69.049V66.7808H67.4404ZM71.1857 57.6463H72.9785V66.7808H71.1857V57.6463ZM78.4799 66.7808H77.1291L74.0837 57.6463H75.9502L77.8045 63.602L79.6587 57.6463H81.5375L78.4799 66.7808ZM82.6427 66.7808V57.6463H88.7089V59.2418H84.4355V61.3854H88.0703V62.9809H84.4355V65.1975H88.7089V66.793H82.6427V66.7808ZM95.3645 66.7808L93.5717 63.1392H92.2823V66.7808H90.4894V57.6463H94.0997C95.9785 57.6463 97.0837 58.913 97.0837 60.4476C97.0837 61.7264 96.2978 62.5303 95.4013 62.8469L97.4643 66.793H95.3768L95.3645 66.7808ZM93.9646 59.2297H92.27V61.6412H93.9646C94.7505 61.6412 95.2663 61.1418 95.2663 60.4354C95.2663 59.729 94.7505 59.2297 93.9646 59.2297ZM101.468 66.8539C100.068 66.8539 99.0116 66.5616 98.1029 65.6482L99.2695 64.4911C99.8466 65.0757 100.645 65.2584 101.492 65.2584C102.548 65.2584 103.125 64.8565 103.125 64.1258C103.125 63.8091 103.039 63.5411 102.843 63.3585C102.659 63.1879 102.45 63.1027 102.032 63.0418L100.915 62.8835C100.129 62.7738 99.5396 62.5303 99.1344 62.1283C98.6923 61.6899 98.4713 61.1053 98.4713 60.3258C98.4713 58.6938 99.687 57.5611 101.676 57.5611C102.941 57.5611 103.862 57.8656 104.648 58.6207L103.506 59.7412C102.929 59.1931 102.229 59.1079 101.615 59.1079C100.657 59.1079 100.19 59.6316 100.19 60.2649C100.19 60.4963 100.264 60.7399 100.461 60.9226C100.645 61.0931 100.94 61.2271 101.32 61.2758L102.413 61.4341C103.248 61.5559 103.788 61.7751 104.169 62.1405C104.66 62.6033 104.881 63.2732 104.881 64.077C104.881 65.843 103.395 66.8539 101.468 66.8539ZM106.576 57.6342H108.369V66.7687H106.576V57.6342ZM114.042 59.2297V66.7808H112.249V59.2297H109.842V57.6342H116.449V59.2297H114.042ZM121.422 63.0296V66.7808H119.642V63.0296L116.879 57.6342H118.831L120.55 61.3123L122.245 57.6342H124.197L121.434 63.0296H121.422ZM48.1857 24.1288L46.663 25.639L51.7346 30.6935H40.7442V18.6359L38.5707 20.743V30.6935H31.6449V24.1288L29.4714 26.2358V30.6935H21.2685C22.1035 29.78 22.7298 28.4525 22.5333 27.1128C22.2877 25.3833 20.9615 23.873 18.567 23.873C16.1724 23.873 14.8339 25.3833 14.5638 27.1128C14.3796 28.4525 14.9936 29.78 15.8409 30.6935H7.5766V24.1532H3.7576C1.38761 24.1532 0.0122797 25.5903 0.0122797 28.5499C0.0122797 31.7165 2.14896 32.837 3.7576 32.837H56.9535L48.198 24.1288H48.1857ZM5.24345 30.6691H3.86812C2.89802 30.6691 2.30859 29.5852 2.30859 28.5256C2.30859 27.5877 2.59103 26.1749 3.86812 26.1749H5.24345V30.6691ZM18.5547 30.1698C17.4618 29.5364 16.725 28.3063 16.9092 27.1858C17.0197 26.382 17.6828 25.7852 18.5547 25.7852C19.4266 25.7852 20.0528 26.4063 20.1879 27.1858C20.3967 28.3185 19.6476 29.5364 18.5547 30.1698ZM49.9294 21.2545L48.4313 19.7686L46.9086 21.2788L48.4068 22.7647L49.9294 21.2545ZM33.7202 35.5409L32.222 34.055L30.6994 35.5652L32.1975 37.0511L33.7202 35.5409ZM30.6994 35.5409L29.2012 34.055L27.6785 35.5652L29.1767 37.0511L30.6994 35.5409ZM20.0774 21.2545L18.5793 19.7686L17.0566 21.2788L18.5547 22.7647L20.0774 21.2545ZM7.55204 21.2545L6.05391 19.7686L4.53123 21.2788L6.02935 22.7647L7.55204 21.2545ZM4.53123 21.2545L3.0331 19.7686L1.51041 21.2788L3.00854 22.7647L4.53123 21.2545ZM95.4627 14.7873C96.6539 14.702 97.624 14.3001 98.0906 13.411C98.68 14.3975 99.7115 14.7873 100.854 14.7873C103.395 14.7873 104.808 12.9604 104.808 10.1469C104.808 7.33351 103.383 5.48225 100.854 5.48225C98.5327 5.48225 97.0346 7.1021 96.8995 9.56233C96.8381 10.7924 96.8995 12.6437 94.9347 12.6437H87.7388L90.0965 10.5976C90.0965 7.93029 88.1809 5.82327 85.0004 5.82327C81.8199 5.82327 79.9043 7.93029 79.9043 10.5976L82.2375 12.6437H73.4329V6.10339H69.6139C67.2439 6.10339 65.8686 7.54055 65.8686 10.5001C65.8686 13.6668 68.0052 14.7873 69.6139 14.7873H95.4627ZM100.866 7.4553C101.811 7.4553 102.438 8.12516 102.438 10.1957C102.438 12.12 101.811 12.802 100.866 12.802C99.9203 12.802 99.3063 12.1322 99.3063 10.1713C99.3063 8.21042 99.9326 7.44312 100.866 7.44312M71.1243 12.6315H69.749C68.7789 12.6315 68.1894 11.5476 68.1894 10.488C68.1894 9.56232 68.4719 8.13734 69.749 8.13734H71.1243V12.6315ZM82.3848 9.9886C82.4585 8.85592 83.5145 7.8085 85.0372 7.8694C86.5722 7.89376 87.5546 8.89246 87.6283 9.9886L85.0127 12.3027C84.4233 11.8155 83.0479 10.6097 82.3848 9.9886ZM124.124 14.7751L115.405 6.16429L113.882 7.67453L118.917 12.6315H109.572V0.573975L107.399 2.681V14.7751H124.124ZM118.426 17.5033L116.928 16.0174L115.405 17.5276L116.903 19.0135L118.426 17.5033ZM115.417 24.0923L113.895 25.6025L118.991 30.6569H109.388C108.234 30.6569 107.681 30.2794 107.681 29.4999C107.681 27.0519 106.306 25.0666 103.727 25.0666C101.148 25.0666 99.8589 26.7961 99.6993 29.4999C99.601 30.6204 98.5081 30.596 97.5994 30.6569H91.6192V24.0923L89.4457 26.1993V30.6569H85.5161V32.8005H98.2748C99.0361 32.8005 99.7361 32.6665 100.313 32.3864C100.94 33.6409 102.143 34.3595 103.727 34.3838C105.36 34.3838 106.527 33.6165 107.165 32.3011C107.878 32.6665 108.7 32.764 109.498 32.7883L124.197 32.8005L115.405 24.0923H115.417ZM103.727 32.2524C102.781 32.2524 102.155 31.5947 102.155 29.6826C102.155 27.7704 102.781 27.0519 103.727 27.0519C104.673 27.0519 105.311 27.7095 105.311 29.7313C105.311 31.5826 104.685 32.2524 103.727 32.2524ZM80.3587 32.8127V24.141L78.1851 26.248V30.7057H72.1681C70.9401 30.7057 70.0682 30.1332 70.0682 29.098V24.141H67.7351V32.289C67.7351 33.4095 67.2684 34.0063 66.1019 34.0063C64.9353 34.0063 64.4195 33.4095 64.4195 32.289V24.141H62.0987V32.3499C62.0987 34.603 63.6705 36.1498 65.8317 36.1864C66.0036 36.2107 66.1142 36.1864 66.3352 36.1864C68.5087 36.1498 70.0805 34.6152 70.0805 32.362V32.289C70.584 32.5935 71.2102 32.7761 71.8979 32.8127H80.3709H80.3587ZM67.5509 21.2545L66.0527 19.7686L64.5301 21.2788L66.0405 22.7647L67.5632 21.2545H67.5509ZM80.7762 35.5409L79.278 34.055L77.7553 35.5652L79.2535 37.0511L80.7762 35.5409ZM73.8258 3.13164L72.3277 1.64576L70.805 3.15599L72.3031 4.64187L73.8258 3.13164ZM70.805 3.13164L69.3069 1.64576L67.7842 3.15599L69.2823 4.64187L70.805 3.13164Z" fill="white"/><path d="M198.797 0.000488281H169.51L184.11 14.5792L198.797 0.000488281Z" fill="white"/><path d="M168.023 1.25342V30.5813L182.747 15.9661L168.023 1.25342Z" fill="white"/><path d="M197.948 31.1059L184.048 17.3188L181.628 19.706L190.359 28.3655H172.91L169.496 31.7514L198.611 31.7635L197.948 31.1059Z" fill="white"/><path d="M164.855 30.5689V1.38721L150.193 15.9172L164.855 30.5689Z" fill="white"/><path d="M132.842 1.27783V30.4595L147.492 15.9174L132.842 1.27783Z" fill="white"/><path d="M155.056 28.365H137.656L134.242 31.7509H163.321L148.781 17.3306L146.362 19.7299L155.056 28.365Z" fill="white"/><path d="M159.489 48.5245L157.066 50.9272L159.489 53.33L161.912 50.9273L159.489 48.5245Z" fill="white"/><path d="M163.504 35.0522H134.303L148.854 49.5822L163.504 35.0522Z" fill="white"/><path d="M132.842 36.2817V65.4634L147.504 50.9335L132.842 36.2817Z" fill="white"/><path d="M156.641 60.0688L148.819 52.2983L146.399 54.6977L155.192 63.4181H137.619L134.193 66.8039L163.407 66.8161L156.641 60.0688Z" fill="white"/><path d="M184.027 68.5874L181.604 70.9897L184.026 73.3929L186.449 70.9906L184.027 68.5874Z" fill="white"/><path d="M184.032 35.0674L181.609 37.4702L184.032 39.873L186.455 37.4702L184.032 35.0674Z" fill="white"/><path d="M168.023 35.0522V65.5006L183.312 50.3251L168.023 35.0522Z" fill="white"/><path d="M195.175 63.4194H172.801L169.375 66.8053L198.576 66.8175L195.175 63.4194Z" fill="white"/><path d="M200.039 35.0522V65.5006L184.738 50.3251L200.039 35.0522Z" fill="white"/><path d="M159.77 103.526V100.42C159.77 99.86 159.611 99.4093 159.267 99.0683C158.972 98.776 158.542 98.6177 158.014 98.6177C157.486 98.6177 156.995 98.8126 156.639 99.2145V98.6786H155.927V103.538H156.639V100.542C156.639 99.6895 157.118 99.251 157.855 99.251C158.592 99.251 159.058 99.6895 159.058 100.542V103.538H159.77V103.526ZM153.876 101.102C153.876 101.638 153.852 102.247 153.483 102.6C153.25 102.832 152.931 102.954 152.587 102.954C152.243 102.954 151.924 102.82 151.703 102.6C151.347 102.247 151.31 101.638 151.31 101.102C151.31 100.566 151.347 99.9574 151.703 99.6042C151.936 99.385 152.243 99.251 152.587 99.251C152.931 99.251 153.25 99.385 153.483 99.6042C153.839 99.9574 153.876 100.566 153.876 101.102ZM154.588 101.102C154.588 100.347 154.49 99.6651 153.987 99.1658C153.655 98.8247 153.176 98.6177 152.587 98.6177C151.997 98.6177 151.518 98.8369 151.187 99.1658C150.696 99.6651 150.585 100.347 150.585 101.102C150.585 101.857 150.683 102.539 151.187 103.039C151.518 103.368 151.997 103.587 152.587 103.587C153.176 103.587 153.655 103.368 153.987 103.039C154.478 102.539 154.588 101.857 154.588 101.102ZM149.247 98.6786H148.534V103.526H149.247V98.6786ZM149.296 96.4985H148.498V97.2901H149.296V96.4985ZM147.306 103.526V102.917H146.926C146.471 102.917 146.263 102.649 146.263 102.211V99.251H147.306V98.7151H146.263V97.1927H145.55V98.7151H144.937V99.251H145.55V102.235C145.55 102.954 145.968 103.538 146.803 103.538H147.306V103.526ZM143.168 101.809C143.168 102.211 143.095 102.491 142.923 102.649C142.616 102.941 142.247 102.978 141.83 102.978C141.056 102.978 140.7 102.71 140.7 102.15C140.7 101.589 141.056 101.285 141.793 101.285H143.168V101.809ZM143.88 103.526V100.225C143.88 99.1658 143.23 98.6055 141.916 98.6055C141.118 98.6055 140.626 98.7638 140.184 99.3241L140.675 99.7747C140.958 99.3728 141.277 99.2267 141.916 99.2267C142.812 99.2267 143.168 99.5799 143.168 100.298V100.761H141.695C140.602 100.761 140 101.309 140 102.162C140 102.552 140.135 102.917 140.368 103.148C140.675 103.465 141.081 103.587 141.756 103.587C142.431 103.587 142.775 103.453 143.168 103.063V103.526H143.88ZM138.084 101.102C138.084 102.052 137.925 102.954 136.856 102.954C135.788 102.954 135.616 102.04 135.616 101.102C135.616 100.164 135.788 99.251 136.856 99.251C137.925 99.251 138.084 100.152 138.084 101.102ZM138.797 103.526V96.4985H138.084V99.2267C137.691 98.7273 137.237 98.6055 136.697 98.6055C136.206 98.6055 135.764 98.776 135.506 99.0318C135.014 99.519 134.904 100.335 134.904 101.09C134.904 101.845 135.002 102.661 135.506 103.148C135.764 103.404 136.206 103.575 136.697 103.575C137.237 103.575 137.691 103.441 138.084 102.929V103.514H138.797V103.526ZM133.627 103.526V100.42C133.627 99.86 133.467 99.4093 133.123 99.0683C132.829 98.776 132.399 98.6177 131.871 98.6177C131.343 98.6177 130.839 98.8126 130.496 99.2145V98.6786H129.783V103.538H130.496V100.542C130.496 99.6895 130.974 99.251 131.711 99.251C132.448 99.251 132.915 99.6895 132.915 100.542V103.538H133.627V103.526ZM128.187 103.526V98.6664H127.475V101.65C127.475 102.503 126.984 102.941 126.247 102.941C125.51 102.941 125.056 102.503 125.056 101.65V98.6664H124.343V101.76C124.343 102.32 124.491 102.783 124.847 103.124C125.142 103.416 125.584 103.575 126.112 103.575C126.64 103.575 127.155 103.368 127.499 102.978V103.514H128.199L128.187 103.526ZM122.342 101.102C122.342 101.638 122.317 102.247 121.949 102.6C121.728 102.832 121.396 102.954 121.052 102.954C120.709 102.954 120.389 102.82 120.168 102.6C119.812 102.247 119.775 101.638 119.775 101.102C119.775 100.566 119.812 99.9574 120.168 99.6042C120.402 99.385 120.709 99.251 121.052 99.251C121.396 99.251 121.715 99.385 121.949 99.6042C122.305 99.9574 122.342 100.566 122.342 101.102ZM123.054 101.102C123.054 100.347 122.956 99.6651 122.452 99.1658C122.108 98.8247 121.642 98.6177 121.052 98.6177C120.463 98.6177 119.984 98.8369 119.653 99.1658C119.161 99.6651 119.051 100.347 119.051 101.102C119.051 101.857 119.149 102.539 119.653 103.039C119.984 103.368 120.463 103.587 121.052 103.587C121.642 103.587 122.121 103.368 122.452 103.039C122.943 102.539 123.054 101.857 123.054 101.102ZM118.646 97.1683V96.4985H114.249V103.526H114.998V100.432H118.105V99.7625H114.998V97.1805H118.646V97.1683ZM111.118 99.0683C110.774 98.7273 110.406 98.6177 109.939 98.6177C109.374 98.6177 108.834 98.8613 108.564 99.2632V98.6786H107.852V103.538H108.564V100.554C108.564 99.8113 109.018 99.251 109.743 99.251C110.123 99.251 110.32 99.3363 110.59 99.6042L111.118 99.0683ZM105.592 101.809C105.592 102.211 105.506 102.491 105.347 102.649C105.04 102.941 104.671 102.978 104.254 102.978C103.48 102.978 103.124 102.71 103.124 102.15C103.124 101.589 103.48 101.285 104.217 101.285H105.592V101.809ZM106.304 103.526V100.225C106.304 99.1658 105.666 98.6055 104.34 98.6055C103.541 98.6055 103.05 98.7638 102.608 99.3241L103.099 99.7747C103.394 99.3728 103.701 99.2267 104.327 99.2267C105.224 99.2267 105.58 99.5799 105.58 100.298V100.761H104.106C103.013 100.761 102.412 101.309 102.412 102.162C102.412 102.552 102.547 102.917 102.78 103.148C103.087 103.465 103.492 103.587 104.168 103.587C104.843 103.587 105.187 103.453 105.58 103.063V103.526H106.292H106.304ZM101.675 103.526V102.917H101.294C100.84 102.917 100.631 102.649 100.631 102.211V99.251H101.675V98.7151H100.631V97.1927H99.919V98.7151H99.305V99.251H99.919V102.235C99.919 102.954 100.336 103.538 101.171 103.538H101.675V103.526ZM97.5367 101.809C97.5367 102.211 97.4507 102.491 97.2911 102.649C96.9841 102.941 96.6157 102.978 96.1982 102.978C95.4246 102.978 95.0685 102.71 95.0685 102.15C95.0685 101.589 95.4246 101.285 96.1614 101.285H97.5367V101.809ZM98.2489 103.526V100.225C98.2489 99.1658 97.5981 98.6055 96.2842 98.6055C95.486 98.6055 94.9948 98.7638 94.5527 99.3241L95.0439 99.7747C95.3263 99.3728 95.6456 99.2267 96.2719 99.2267C97.1683 99.2267 97.5244 99.5799 97.5244 100.298V100.761H96.0508C94.9579 100.761 94.3562 101.309 94.3562 102.162C94.3562 102.552 94.4913 102.917 94.7246 103.148C95.0316 103.465 95.4368 103.587 96.1122 103.587C96.7876 103.587 97.1315 103.453 97.5244 103.063V103.526H98.2366H98.2489ZM92.5634 100.018C92.5634 101.139 92.5388 101.687 92.2687 102.101L91.3968 101.248L90.9425 101.699L91.8389 102.588C91.5565 102.807 91.2126 102.929 90.832 102.929C90.3653 102.929 89.9232 102.746 89.604 102.43C89.1619 101.979 89.1128 101.504 89.1128 100.03C89.1128 98.5568 89.1619 98.0818 89.604 97.6312C89.911 97.3145 90.3653 97.1318 90.832 97.1318C91.2986 97.1318 91.7407 97.3145 92.0599 97.6312C92.502 98.0818 92.5511 98.5568 92.5511 100.03M93.5949 103.441L92.8213 102.673C93.3125 102.077 93.3125 101.382 93.3125 100.043C93.3125 98.5568 93.3125 97.8626 92.6493 97.2049C92.1704 96.7299 91.5442 96.4741 90.832 96.4741C90.1197 96.4741 89.4935 96.7299 89.0268 97.2049C88.3637 97.8626 88.3637 98.5568 88.3637 100.043C88.3637 101.529 88.3637 102.223 89.0268 102.88C89.5057 103.355 90.132 103.611 90.832 103.611C91.3968 103.611 91.9248 103.441 92.3546 103.124L93.1405 103.904L93.5949 103.453V103.441ZM85.2078 99.2632V98.7273H84.1641V97.826C84.1641 97.3754 84.3605 97.1075 84.8149 97.1075H85.2078V96.4985H84.6921C83.8571 96.4985 83.4518 97.0831 83.4518 97.8017V98.7273H82.8256V99.2632H83.4518V103.55H84.1641V99.2632H85.2078ZM81.2415 101.114C81.2415 101.65 81.2169 102.259 80.8485 102.613C80.6152 102.844 80.2959 102.966 79.9521 102.966C79.6083 102.966 79.289 102.832 79.068 102.613C78.7118 102.259 78.6627 101.65 78.6627 101.114C78.6627 100.579 78.6996 99.9696 79.068 99.6164C79.289 99.3972 79.6083 99.2632 79.9521 99.2632C80.2959 99.2632 80.6152 99.3972 80.8485 99.6164C81.2046 99.9696 81.2415 100.579 81.2415 101.114ZM81.9537 101.114C81.9537 100.359 81.8555 99.6773 81.352 99.1779C81.0204 98.8369 80.5538 98.6299 79.9521 98.6299C79.3504 98.6299 78.8838 98.8491 78.5522 99.1779C78.061 99.6773 77.9628 100.359 77.9628 101.114C77.9628 101.87 78.061 102.552 78.5522 103.051C78.896 103.38 79.3627 103.599 79.9521 103.599C80.5415 103.599 81.0204 103.38 81.352 103.051C81.8555 102.552 81.9537 101.87 81.9537 101.114ZM75.2121 99.0805C74.8683 98.7395 74.4999 98.6299 74.0333 98.6299C73.4684 98.6299 72.9281 98.8735 72.6579 99.2754V98.6908H71.9457V103.55H72.6579V100.566C72.6579 99.8234 73.1123 99.2632 73.8368 99.2632C74.2175 99.2632 74.4139 99.3484 74.6841 99.6164L75.2121 99.0805ZM69.9073 100.773H67.3162C67.3408 100.384 67.3531 100.238 67.4636 99.9574C67.6478 99.519 68.0899 99.2267 68.6056 99.2267C69.1214 99.2267 69.5634 99.519 69.7476 99.9574C69.8581 100.225 69.8827 100.372 69.895 100.773M70.6072 101.309V100.98C70.6072 99.5433 69.8581 98.6299 68.5933 98.6299C67.3285 98.6299 66.5917 99.5433 66.5917 101.114C66.5917 102.832 67.439 103.599 68.7284 103.599C69.5634 103.599 70.0178 103.343 70.5213 102.856L70.0301 102.43C69.6371 102.82 69.3178 102.978 68.7407 102.978C67.8074 102.978 67.304 102.369 67.304 101.297H70.6072V101.309ZM64.8112 101.127C64.8112 102.077 64.6515 102.978 63.5832 102.978C62.5149 102.978 62.3429 102.064 62.3429 101.127C62.3429 100.189 62.5149 99.2754 63.5832 99.2754C64.6515 99.2754 64.8112 100.177 64.8112 101.127ZM65.5234 101.127C65.5234 100.372 65.4252 99.5555 64.934 99.0683C64.6761 98.8126 64.234 98.642 63.7428 98.642C63.2025 98.642 62.7605 98.7638 62.3552 99.2632V96.535H61.643V103.562H62.3552V102.978C62.7482 103.489 63.2025 103.623 63.7428 103.623C64.234 103.623 64.6761 103.453 64.934 103.197C65.4252 102.71 65.5234 101.894 65.5234 101.139M60.0957 103.562V100.457C60.0957 99.8965 59.9116 99.4459 59.5677 99.1049C59.273 98.8126 58.8309 98.6542 58.3029 98.6542C57.6152 98.6542 57.0627 98.9344 56.6943 99.4581C56.3995 98.9222 55.8715 98.6542 55.1961 98.6542C54.6558 98.6542 54.1646 98.8491 53.8085 99.251V98.7151H53.0963V103.575H53.8085V100.579C53.8085 99.726 54.2997 99.2875 55.0365 99.2875C55.7733 99.2875 56.2399 99.726 56.2399 100.579V103.575H56.9521V100.505C56.9521 99.7382 57.4556 99.2875 58.1801 99.2875C58.9046 99.2875 59.3835 99.726 59.3835 100.579V103.575H60.0957V103.562ZM51.0456 100.786H48.4546C48.4791 100.396 48.4914 100.25 48.6019 99.9696C48.7861 99.5311 49.2282 99.2388 49.7439 99.2388C50.2597 99.2388 50.7017 99.5311 50.8859 99.9696C50.9965 100.238 51.0087 100.384 51.0333 100.786M51.7455 101.322V100.993C51.7455 99.5555 50.9965 98.642 49.7316 98.642C48.4668 98.642 47.7178 99.5555 47.7178 101.127C47.7178 102.844 48.5651 103.611 49.8544 103.611C50.6895 103.611 51.1438 103.355 51.6473 102.868L51.1561 102.442C50.7631 102.832 50.4439 102.99 49.879 102.99C48.9457 102.99 48.4423 102.381 48.4423 101.309H51.7455V101.322ZM46.2688 103.562V96.535H45.5197L43.2725 101.516L40.9639 96.535H40.2148V103.562H40.9639V98.2279L42.9409 102.466H43.5918L45.532 98.2279V103.562H46.281H46.2688Z" fill="white"/><path d="M64.174 83.5132H63.3145V84.3657H64.174V83.5132Z" fill="white"/><path d="M52.9381 89.6759H57.5675C58.2183 89.6759 58.685 89.4811 58.9551 89.067C59.2007 89.4932 59.7288 89.6759 60.2813 89.6759H63.1794C64.3582 89.6759 64.9599 88.7259 64.9599 87.4593C64.9599 85.7907 63.953 85.3279 63.0566 85.3279C61.8409 85.3279 61.1655 86.2901 61.1655 87.4593C61.1655 88.1535 61.3374 88.6285 61.6198 89.0061H60.2813C60.048 89.0061 59.2253 89.0061 59.2253 88.0317V87.1305C59.2253 85.401 57.4693 85.1087 56.315 85.4741C55.8361 85.6324 55.3203 85.8882 54.6449 86.3632V82.6606H53.8836V89.0061H43.3844C43.1757 89.0061 42.3652 88.9817 42.3406 88.0317V85.6446H41.5793V89.6638C41.5793 89.9926 41.5547 90.8452 40.6829 90.8452C40.5478 90.8452 40.4004 90.8452 40.3022 90.8208L40.2285 91.4176C40.3636 91.4298 40.5724 91.4419 40.7443 91.4419C42.0459 91.4419 42.3406 90.565 42.3406 89.6638V89.3715C42.6108 89.5907 43.0037 89.6759 43.3844 89.6759H52.9258H52.9381ZM58.5131 87.8978C58.5131 88.8721 58.071 89.0061 57.3096 89.0061H54.6572V87.0696C55.3203 86.4971 55.8115 86.2535 56.3764 86.0952C57.4079 85.8029 58.5131 86.0465 58.5131 87.3619V87.8978ZM63.0566 89.0061C62.2093 89.0061 61.89 88.3362 61.89 87.4593C61.89 86.3266 62.4549 85.9856 63.0566 85.9856C63.6583 85.9856 64.2354 86.3388 64.2354 87.4593C64.2354 88.5189 63.8179 89.0061 63.0566 89.0061Z" fill="white"/><path d="M62.8342 83.5132H61.9746V84.3657H62.8342V83.5132Z" fill="white"/><path d="M71.801 83.562H70.9414V84.4146H71.801V83.562Z" fill="white"/><path d="M70.4611 83.562H69.6016V84.4146H70.4611V83.562Z" fill="white"/><path d="M82.8519 89.6767H83.4659C84.1659 89.6767 84.6693 89.3966 84.9395 88.9582C85.1237 89.4088 85.6395 89.7255 86.278 89.7255C86.9902 89.7255 87.4569 89.4575 87.7147 89.0312C87.9235 89.4453 88.4147 89.7255 89.0287 89.7255C89.7532 89.7255 90.2321 89.4453 90.49 89.0069C90.6987 89.4453 91.2881 89.6767 91.7916 89.6767H92.4793C93.1792 89.6767 93.6827 89.3966 93.9528 88.9582C94.137 89.4088 94.6528 89.7255 95.2913 89.7255C96.0158 89.7255 96.4947 89.4453 96.7526 89.0069C96.9368 89.3723 97.3298 89.6767 98.0543 89.6767H99.7489V85.6454H98.9875V89.0069H98.0543C97.821 89.0069 96.9982 89.0434 96.9982 87.862V85.9012H96.2369V87.9716C96.2369 88.6172 95.979 89.0678 95.2913 89.0678C94.8861 89.0678 94.2476 88.946 94.2476 88.1056V86.2056H93.4862V87.9595C93.4862 89.0069 92.7126 89.0191 92.3319 89.0191H91.7793C91.546 89.0191 90.7233 89.0191 90.7233 88.0447V85.6576H89.9619V87.9838C89.9619 88.6293 89.704 89.08 89.0164 89.08C88.5989 89.08 87.9726 88.9582 87.9726 88.1178V85.9255H87.2113V87.996C87.2113 88.6415 86.9534 89.0921 86.2657 89.0921C85.8605 89.0921 85.2219 88.9703 85.2219 88.13V86.23H84.4606V87.9838C84.4606 89.0312 83.687 89.0434 83.294 89.0434H73.1141C72.5984 89.0434 72.3159 88.7877 72.3159 88.1665V85.3774H70.4126C69.3197 85.3774 68.5215 86.1691 68.5215 87.655C68.5215 88.812 69.1846 89.7255 70.4126 89.7255C71.088 89.7255 71.5546 89.3966 71.837 88.9825C72.0581 89.3723 72.451 89.7255 73.0282 89.7255H82.8274L82.8519 89.6767ZM71.616 87.6306C71.616 88.3614 71.1862 89.0434 70.4371 89.0434C69.8354 89.0434 69.2705 88.7511 69.2705 87.6184C69.2705 86.7415 69.5775 86.0108 70.4371 86.0108H71.616V87.6306Z" fill="white"/><path d="M103.763 84.1095H103.075C102.805 84.1095 102.596 83.8537 102.621 83.5736C102.621 83.4031 102.732 83.2204 102.989 83.2204C103.174 83.2204 103.284 83.2813 103.456 83.4396L103.714 83.2082C103.468 82.9646 103.272 82.8794 102.977 82.8794C102.646 82.8794 102.388 83.0377 102.265 83.3057C102.142 83.5614 102.179 83.8659 102.363 84.1095H101.896V84.4505H103.751V84.1095H103.763Z" fill="white"/><path d="M108.676 85.3281C107.448 85.3281 106.785 86.2294 106.785 87.496V87.8979C106.785 88.4216 106.638 88.9575 105.95 88.9941H104.722V87.3864C104.722 85.7178 103.727 85.3159 102.831 85.3159C101.603 85.3159 100.977 86.2172 100.927 87.362C100.866 88.8479 101.578 89.6518 102.929 89.6518H103.985C103.948 89.9441 103.862 90.1389 103.678 90.3703C103.457 90.6505 103.113 90.7844 102.659 90.7844C102.291 90.7844 102.143 90.7479 101.873 90.6017L101.529 91.1498C101.848 91.3081 102.106 91.4178 102.683 91.4178C103.322 91.4178 103.826 91.2229 104.182 90.8332C104.501 90.4921 104.648 90.1268 104.697 89.6639H106.159C106.49 89.6639 106.908 89.4082 107.19 88.9941C107.534 89.4569 108.05 89.6883 108.664 89.6883C109.769 89.6883 110.567 88.9819 110.567 87.496C110.567 86.2294 109.904 85.3281 108.664 85.3281M103.997 88.9941H102.954C101.91 88.9941 101.615 88.2877 101.64 87.3986C101.677 86.2659 102.205 85.9736 102.819 85.9736C103.433 85.9736 103.985 86.2659 103.985 87.3864V88.9941H103.997ZM108.664 89.0306C107.804 89.0306 107.497 88.3729 107.497 87.4838C107.497 86.2537 108.062 85.9614 108.664 85.9614C109.265 85.9614 109.843 86.2537 109.843 87.4838C109.843 88.3729 109.523 89.0306 108.664 89.0306Z" fill="white"/><path d="M117.346 92.3062H116.486V93.1587H117.346V92.3062Z" fill="white"/><path d="M118.684 92.3062H117.824V93.1587H118.684V92.3062Z" fill="white"/><path d="M128.299 83.5132H127.439V84.3657H128.299V83.5132Z" fill="white"/><path d="M127.856 85.3286C126.64 85.3286 125.965 86.2908 125.965 87.46C125.965 88.1542 126.137 88.6292 126.432 89.0068H121.323C120.562 89.0068 119.69 88.3978 119.199 88.0324L118.794 88.617C119.051 88.7632 119.444 89.0068 119.604 89.1042L119.641 89.1408C120.071 89.3965 120.144 89.5914 120.144 89.7375C120.169 90.6875 118.523 91.0042 117.48 91.0042C115.539 91.0042 114.827 90.2125 114.827 89.226C114.827 88.9215 114.876 88.41 115.343 87.6914L114.668 87.3382C114.569 87.4722 114.078 88.3369 114.078 89.2747C114.078 90.2125 114.582 91.6619 117.492 91.6619C119.457 91.6619 120.636 90.9189 120.795 90.0177C120.807 89.9202 120.795 89.7741 120.721 89.6401C120.869 89.6766 121.016 89.701 121.176 89.701H128.003C129.182 89.701 129.784 88.751 129.784 87.4844C129.784 85.8158 128.789 85.353 127.881 85.353M127.881 89.019C127.033 89.019 126.714 88.3491 126.714 87.4722C126.714 86.3395 127.279 85.9985 127.881 85.9985C128.482 85.9985 129.059 86.3517 129.059 87.4722C129.059 88.5318 128.642 89.019 127.881 89.019Z" fill="white"/><path d="M151.188 83.5132H150.328V84.3657H151.188V83.5132Z" fill="white"/><path d="M147.577 89.6764H152.206C152.857 89.6764 153.324 89.4815 153.594 89.0674C153.84 89.4937 154.38 89.6764 154.92 89.6764H159.746V89.0065H157.965C157.425 89.0065 157.045 88.7995 156.811 88.3123C156.578 87.8373 156.443 86.8995 156.885 86.3758C157.13 86.0956 157.499 85.9373 157.965 85.9373C158.248 85.9373 158.481 85.986 158.678 86.0713C158.862 86.1565 159.058 86.3027 159.255 86.4976L159.746 86.0713C159.488 85.8155 159.218 85.6206 158.948 85.4988C158.69 85.3771 158.346 85.3283 157.953 85.3283C157.278 85.3283 156.725 85.511 156.369 85.9495C155.681 86.7899 155.841 88.3001 156.455 89.0065H154.908C154.675 89.0065 153.852 89.0065 153.852 88.0321V87.1309C153.852 85.4014 152.096 85.1091 150.941 85.4745C150.463 85.6328 149.947 85.8886 149.271 86.3636V85.6328H148.51V88.9943H137.2V87.3866C137.2 85.7303 136.206 85.3162 135.309 85.3162C134.081 85.3162 133.455 86.2174 133.406 87.3623C133.345 88.8482 134.057 89.652 135.408 89.652H136.464C136.427 89.9443 136.341 90.1392 136.157 90.3706C135.936 90.6507 135.592 90.7847 135.137 90.7847C134.769 90.7847 134.622 90.7481 134.352 90.602L134.008 91.1501C134.327 91.3084 134.585 91.418 135.162 91.418C135.801 91.418 136.304 91.2231 136.66 90.8334C136.979 90.4924 137.127 90.127 137.176 89.6642H147.552L147.577 89.6764ZM136.513 89.0065H135.469C134.425 89.0065 134.131 88.3001 134.155 87.411C134.192 86.2783 134.72 85.986 135.334 85.986C135.948 85.986 136.501 86.2783 136.501 87.3988V89.0065H136.513ZM153.152 87.8982C153.152 88.8725 152.71 89.0065 151.948 89.0065H149.296V87.07C149.959 86.4976 150.45 86.254 151.015 86.0956C152.047 85.8155 153.152 86.0469 153.152 87.3623V87.8982Z" fill="white"/></g></g><defs><clipPath id="clip0_2819_15397"><rect width="200.037" height="103.865" fill="white" transform="translate(0 0.000244141)"/></clipPath></defs></svg>