<?xml version="1.0" encoding="utf-8"?>
<!-- Generator: Adobe Illustrator 22.0.0, SVG Export Plug-In . SVG Version: 6.00 Build 0)  -->
<svg version="1.1" xmlns="http://www.w3.org/2000/svg" xmlns:xlink="http://www.w3.org/1999/xlink" x="0px" y="0px"
	 viewBox="0 0 407.4 140" style="enable-background:new 0 0 407.4 140;" xml:space="preserve">
<style type="text/css">
	.st0{fill:#FFFFFF;}
	.st1{fill:#0088CE;}
	.st2{fill:#1E1656;}
	.st3{fill:#5BC6E8;}
</style>
<g id="Layer_2">
	<rect x="0" y="0" class="st0" width="407.4" height="140"/>
</g>
<g id="Layer_1">
	<g>
		<g>
			<path class="st1" d="M67.8,53.2c0,0.6-0.1,1-0.3,1.5s-0.4,0.9-0.7,1.2l1.5,1.5l-1.2,1l-1.6-1.5C65.1,57,65,57,64.7,57
				s-0.4,0-0.7,0c-1.2,0-2.1-0.3-2.7-1c-0.7-0.7-1-1.6-1-2.8v-1.6c0-1,0.3-2.1,1-2.8c0.7-0.7,1.6-1,2.7-1c1.2,0,2.1,0.3,2.8,1
				c0.7,0.7,1,1.6,1,2.8C67.8,51.5,67.8,53.2,67.8,53.2z M66,51.5c0-0.7-0.1-1.3-0.6-1.8c-0.3-0.4-0.9-0.7-1.5-0.7s-1,0.3-1.5,0.7
				c-0.4,0.4-0.4,1-0.4,1.8v1.6c0,0.7,0.1,1.3,0.4,1.8c0.3,0.4,0.9,0.7,1.5,0.7s1-0.3,1.5-0.7c0.3-0.4,0.6-1,0.6-1.8V51.5z"/>
			<path class="st1" d="M73.5,56.9c0-0.1-0.1-0.3-0.1-0.4s-0.1-0.3-0.1-0.6c-0.1,0.3-0.4,0.6-0.7,0.9c-0.3,0.1-0.7,0.3-1,0.3
				c-0.7,0-1.2-0.1-1.6-0.6c-0.4-0.3-0.6-0.9-0.6-1.5s0.3-1.2,0.7-1.5s1.2-0.6,2.2-0.6h1v-0.4c0-0.3-0.1-0.6-0.3-0.7
				c-0.1-0.1-0.4-0.3-0.7-0.3c-0.3,0-0.6,0-0.7,0.1c-0.1,0.1-0.3,0.3-0.3,0.6h-1.8l0,0c0-0.6,0.1-1,0.7-1.5c0.6-0.4,1.2-0.6,2.1-0.6
				c0.7,0,1.5,0.1,1.9,0.6c0.4,0.4,0.7,1,0.7,1.8v2.8c0,0.3,0,0.6,0,0.9c0,0.3,0.1,0.6,0.3,0.9h-1.6V56.9z M71.7,55.7
				c0.3,0,0.6-0.1,0.9-0.3c0.3-0.1,0.4-0.3,0.4-0.6v-0.9h-1c-0.4,0-0.7,0.1-0.9,0.3c-0.1,0.1-0.3,0.4-0.3,0.7c0,0.3,0.1,0.4,0.3,0.6
				C71.3,55.7,71.6,55.7,71.7,55.7z"/>
			<path class="st1" d="M78.8,48.5v1.6H80v1.3h-1.2V55c0,0.3,0,0.4,0.1,0.6c0.1,0.1,0.3,0.1,0.4,0.1c0.1,0,0.1,0,0.3,0
				c0,0,0.1,0,0.3,0l0.1,1.3c-0.1,0-0.3,0.1-0.6,0.1c-0.1,0-0.3,0-0.6,0c-0.6,0-1-0.1-1.5-0.4c-0.3-0.3-0.4-0.9-0.4-1.6v-3.4h-1
				v-1.3h1v-1.6h1.8V48.5z"/>
			<path class="st1" d="M85.2,56.9c0-0.1-0.1-0.3-0.1-0.4s-0.1-0.3-0.1-0.6c-0.1,0.3-0.4,0.6-0.7,0.9c-0.3,0.1-0.7,0.3-1,0.3
				c-0.7,0-1.2-0.1-1.6-0.6c-0.4-0.3-0.6-0.9-0.6-1.5s0.3-1.2,0.7-1.5s1.2-0.6,2.2-0.6h1v-0.4c0-0.3-0.1-0.6-0.3-0.7
				s-0.4-0.3-0.7-0.3s-0.6,0-0.7,0.1c-0.1,0.1-0.3,0.3-0.3,0.6H81l0,0c0-0.6,0.1-1,0.7-1.5S83,50,83.9,50c0.7,0,1.5,0.1,1.9,0.6
				s0.7,1,0.7,1.8v2.8c0,0.3,0,0.6,0,0.9c0,0.3,0.1,0.6,0.3,0.9h-1.6V56.9z M83.4,55.7c0.3,0,0.6-0.1,0.9-0.3
				c0.3-0.1,0.4-0.3,0.4-0.6v-0.9h-0.9c-0.4,0-0.7,0.1-0.9,0.3c-0.1,0.1-0.3,0.4-0.3,0.7c0,0.3,0.1,0.4,0.3,0.6
				C83,55.7,83.3,55.7,83.4,55.7z"/>
			<path class="st1" d="M91.8,51.8h-0.6c-0.3,0-0.4,0-0.7,0.1c-0.1,0.1-0.3,0.3-0.4,0.4v4.5h-1.8v-6.7h1.6l0.1,1
				c0.1-0.3,0.3-0.6,0.6-0.9c0.3-0.3,0.6-0.3,0.9-0.3c0.1,0,0.1,0,0.3,0s0.1,0,0.3,0L91.8,51.8z"/>
			<path class="st1" d="M103.2,53.9L103.2,53.9c0,1-0.3,1.8-0.9,2.4c-0.6,0.6-1.5,0.9-2.5,0.9c-1,0-1.9-0.3-2.7-1
				c-0.7-0.7-1-1.6-1-2.7v-1.8c0-1,0.3-2.1,1-2.7c0.6-0.7,1.5-1,2.5-1c1.2,0,1.9,0.3,2.7,0.9c0.6,0.6,0.9,1.3,0.9,2.4l0,0h-1.8
				c0-0.6-0.1-1-0.4-1.3c-0.3-0.3-0.7-0.4-1.3-0.4c-0.6,0-1,0.1-1.3,0.6c-0.3,0.4-0.4,1-0.4,1.6v1.8c0,0.7,0.1,1.2,0.4,1.6
				c0.3,0.4,0.7,0.6,1.3,0.6c0.6,0,1-0.1,1.3-0.4c0.3-0.3,0.4-0.7,0.4-1.3C101.4,53.9,103.2,53.9,103.2,53.9z"/>
			<path class="st1" d="M104.2,53.5c0-1,0.3-1.8,0.9-2.5c0.6-0.6,1.3-0.9,2.4-0.9c1,0,1.8,0.3,2.4,0.9c0.6,0.6,0.9,1.5,0.9,2.5v0.1
				c0,1-0.3,1.8-0.9,2.5c-0.6,0.6-1.3,0.9-2.4,0.9c-1,0-1.8-0.3-2.4-0.9C104.5,55.6,104.2,54.7,104.2,53.5L104.2,53.5z M106,53.6
				c0,0.6,0.1,1,0.3,1.5c0.1,0.4,0.6,0.6,1,0.6c0.4,0,0.7-0.1,1-0.6c0.1-0.4,0.3-0.9,0.3-1.5v-0.1c0-0.6-0.1-1-0.3-1.5
				c-0.1-0.4-0.6-0.6-1-0.6c-0.4,0-0.7,0.1-1,0.6C106.2,52.4,106,52.9,106,53.6L106,53.6z"/>
			<path class="st1" d="M113.6,50.2l0.1,0.9c0.1-0.3,0.4-0.6,0.7-0.7s0.7-0.3,1.2-0.3c0.4,0,0.7,0.1,1,0.3c0.3,0.1,0.6,0.4,0.7,0.9
				c0.1-0.3,0.4-0.6,0.7-0.9c0.3-0.1,0.7-0.3,1.2-0.3c0.6,0,1.2,0.3,1.6,0.7c0.4,0.4,0.6,1.2,0.6,2.1v4h-1.9v-4.2
				c0-0.4-0.1-0.9-0.3-1c-0.1-0.1-0.4-0.3-0.7-0.3c-0.3,0-0.4,0-0.7,0.1c-0.1,0.1-0.3,0.3-0.4,0.4c0,0.1,0,0.1,0,0.1v0.1v4.5h-1.8
				v-4.2c0-0.4-0.1-0.9-0.3-1c-0.1-0.1-0.4-0.3-0.7-0.3s-0.4,0-0.6,0.1c-0.1,0.1-0.3,0.3-0.4,0.4v5.1h-1.8v-6.7H113.6z"/>
			<path class="st1" d="M129.4,53.8c0,1-0.3,1.8-0.7,2.4c-0.4,0.6-1,0.9-1.9,0.9c-0.3,0-0.7,0-0.9-0.1c-0.3-0.1-0.4-0.3-0.7-0.6v3.3
				h-1.8v-9.4h1.6l0.1,0.7c0.1-0.3,0.4-0.6,0.7-0.7s0.6-0.3,1-0.3c0.9,0,1.5,0.3,1.9,1C129.1,51.7,129.4,52.6,129.4,53.8L129.4,53.8
				z M127.6,53.6c0-0.6-0.1-1.2-0.3-1.5c-0.1-0.3-0.6-0.6-1-0.6c-0.3,0-0.4,0-0.7,0.1c-0.3,0.1-0.3,0.3-0.4,0.4v3
				c0.1,0.1,0.3,0.3,0.4,0.4s0.4,0.1,0.7,0.1c0.4,0,0.7-0.1,1-0.4C127.4,54.8,127.6,54.4,127.6,53.6L127.6,53.6z"/>
			<path class="st1" d="M134.8,56c-0.1,0.3-0.4,0.6-0.7,0.9c-0.3,0.1-0.7,0.3-1,0.3c-0.7,0-1.3-0.3-1.6-0.7
				c-0.3-0.4-0.6-1.2-0.6-2.1v-4h1.8v4.2c0,0.4,0.1,0.9,0.3,1c0.1,0.1,0.4,0.3,0.7,0.3s0.6,0,0.7-0.1c0.1-0.1,0.4-0.3,0.4-0.4v-4.9
				h1.8v6.6h-1.5L134.8,56z"/>
			<path class="st1" d="M140.1,48.5v1.6h1.2v1.3h-1.2V55c0,0.3,0,0.4,0.1,0.6c0.1,0.1,0.3,0.1,0.4,0.1s0.1,0,0.3,0c0,0,0.1,0,0.3,0
				l0.1,1.3c-0.1,0-0.3,0.1-0.6,0.1c-0.1,0-0.3,0-0.6,0c-0.6,0-1-0.1-1.5-0.4c-0.3-0.3-0.4-0.9-0.4-1.6v-3.4h-1v-1.3h1v-1.6h1.8
				V48.5z"/>
			<path class="st1" d="M144.5,48.5h-1.8v-1.3h1.8V48.5z M144.5,56.9h-1.8v-6.7h1.8V56.9z"/>
			<path class="st1" d="M147.9,50.2l0.1,1c0.3-0.3,0.4-0.6,0.9-0.7c0.3-0.1,0.7-0.3,1-0.3c0.7,0,1.2,0.1,1.6,0.6
				c0.4,0.4,0.6,1,0.6,2.1v4h-1.8v-4.2c0-0.4-0.1-0.7-0.3-0.9c-0.1-0.1-0.4-0.3-0.9-0.3c-0.3,0-0.4,0-0.6,0.1s-0.3,0.3-0.4,0.4v4.8
				h-1.8v-6.7H147.9z"/>
			<path class="st1" d="M153.3,53.6c0-1,0.3-1.9,0.7-2.5c0.4-0.6,1.2-1,1.9-1c0.4,0,0.7,0.1,1,0.3c0.3,0.1,0.6,0.4,0.7,0.7l0.1-0.9
				h1.6v6.7c0,0.9-0.3,1.5-0.9,2.1c-0.6,0.4-1.3,0.7-2.4,0.7c-0.3,0-0.7,0-1-0.1c-0.4-0.1-0.7-0.1-1-0.4l0.3-1.3
				c0.3,0.1,0.6,0.3,0.9,0.3c0.3,0,0.6,0.1,0.9,0.1c0.4,0,0.9-0.1,1-0.3c0.3-0.1,0.3-0.6,0.3-1v-0.6c-0.1,0.3-0.4,0.4-0.7,0.6
				c-0.3,0.1-0.6,0.1-0.9,0.1c-0.9,0-1.5-0.3-1.9-0.9C153.6,55.6,153.3,54.8,153.3,53.6L153.3,53.6z M155.1,53.8
				c0,0.6,0.1,1,0.3,1.3s0.6,0.4,1,0.4c0.3,0,0.4,0,0.7-0.1c0.1-0.1,0.3-0.3,0.4-0.4v-3c-0.1-0.1-0.3-0.3-0.4-0.4
				c-0.1-0.1-0.4-0.1-0.7-0.1c-0.4,0-0.7,0.1-1,0.6C155.3,52.4,155.1,53,155.1,53.8L155.1,53.8z"/>
			<path class="st1" d="M166.4,53.3v3.6h-1.8v-9.1h3.4c1,0,1.8,0.3,2.4,0.7c0.6,0.4,0.9,1.2,0.9,1.9c0,0.4-0.1,0.9-0.3,1.2
				c-0.3,0.3-0.6,0.6-1,0.9c0.6,0.1,0.9,0.4,1.2,0.7s0.3,0.9,0.3,1.3v0.7c0,0.3,0,0.4,0.1,0.7c0,0.3,0.1,0.4,0.3,0.6v0.1h-1.9
				c-0.1-0.1-0.3-0.3-0.3-0.6c0-0.3-0.1-0.6-0.1-0.9v-0.6c0-0.4-0.1-0.7-0.3-1c-0.3-0.3-0.6-0.4-1-0.4H166.4z M166.4,52h1.6
				c0.4,0,0.9-0.1,1.2-0.3c0.3-0.1,0.4-0.6,0.4-0.9c0-0.4-0.1-0.7-0.4-1c-0.3-0.3-0.6-0.3-1-0.3h-1.6V52H166.4z"/>
			<path class="st1" d="M175.9,57c-1,0-1.8-0.3-2.4-0.9c-0.6-0.6-0.9-1.5-0.9-2.4v-0.3c0-1,0.3-1.8,0.9-2.5c0.6-0.6,1.3-1,2.2-1
				s1.6,0.3,2.1,0.9c0.4,0.6,0.7,1.3,0.7,2.2v1h-4l0,0c0,0.4,0.1,0.7,0.4,1c0.3,0.3,0.6,0.4,1,0.4c0.4,0,0.7,0,1-0.1
				c0.3-0.1,0.6-0.1,0.9-0.4l0.4,1.2c-0.3,0.3-0.6,0.4-1,0.6C177,57,176.5,57,175.9,57z M175.8,51.5c-0.3,0-0.6,0.1-0.7,0.4
				c-0.1,0.3-0.3,0.6-0.3,1l0,0h2.2v-0.1c0-0.4-0.1-0.7-0.3-0.9C176.5,51.5,176.2,51.5,175.8,51.5z"/>
			<path class="st1" d="M183.6,55.1c0-0.1-0.1-0.4-0.3-0.4c-0.1-0.1-0.6-0.3-1-0.4c-0.7-0.1-1.3-0.4-1.8-0.7
				c-0.4-0.3-0.6-0.7-0.6-1.3c0-0.6,0.3-1,0.7-1.5s1.2-0.6,1.9-0.6c0.9,0,1.5,0.1,2.1,0.6c0.4,0.4,0.7,0.9,0.7,1.5l0,0h-1.8
				c0-0.3-0.1-0.4-0.3-0.6c-0.1-0.1-0.4-0.3-0.7-0.3c-0.3,0-0.6,0-0.7,0.1c-0.1,0.1-0.3,0.3-0.3,0.6c0,0.1,0.1,0.4,0.3,0.4
				c0.1,0.1,0.6,0.3,1,0.3c0.9,0.1,1.5,0.4,1.8,0.7c0.4,0.3,0.6,0.7,0.6,1.3c0,0.6-0.3,1-0.7,1.5c-0.6,0.4-1.2,0.6-2.1,0.6
				s-1.6-0.3-2.1-0.7c-0.4-0.4-0.7-1-0.7-1.5l0,0h1.6c0,0.3,0.1,0.6,0.3,0.7c0.3,0.1,0.4,0.3,0.9,0.3c0.3,0,0.6,0,0.7-0.1
				C183.6,55.6,183.6,55.3,183.6,55.1z"/>
			<path class="st1" d="M189.7,57c-1,0-1.8-0.3-2.4-0.9c-0.6-0.6-0.9-1.5-0.9-2.4v-0.3c0-1,0.3-1.8,0.9-2.5c0.6-0.6,1.3-1,2.2-1
				s1.6,0.3,2.1,0.9c0.4,0.6,0.7,1.3,0.7,2.2v1h-4l0,0c0,0.4,0.1,0.7,0.4,1c0.3,0.3,0.6,0.4,1,0.4c0.4,0,0.7,0,1-0.1
				c0.3-0.1,0.6-0.1,0.9-0.4l0.4,1.2c-0.3,0.3-0.6,0.4-1,0.6C190.8,57,190.3,57,189.7,57z M189.6,51.5c-0.3,0-0.6,0.1-0.7,0.4
				c-0.1,0.3-0.3,0.6-0.3,1l0,0h2.2v-0.1c0-0.4-0.1-0.7-0.3-0.9C190.2,51.5,189.9,51.5,189.6,51.5z"/>
			<path class="st1" d="M197.6,56.9c0-0.1-0.1-0.3-0.1-0.4s-0.1-0.3-0.1-0.6c-0.1,0.3-0.4,0.6-0.7,0.9c-0.3,0.1-0.7,0.3-1,0.3
				c-0.7,0-1.2-0.1-1.6-0.6c-0.4-0.3-0.6-0.9-0.6-1.5s0.3-1.2,0.7-1.5s1.2-0.6,2.2-0.6h1v-0.4c0-0.3-0.1-0.6-0.3-0.7
				c-0.1-0.1-0.4-0.3-0.7-0.3c-0.3,0-0.6,0-0.7,0.1c-0.1,0.1-0.3,0.3-0.3,0.6h-1.8l0,0c0-0.6,0.1-1,0.7-1.5s1.2-0.6,2.1-0.6
				c0.7,0,1.5,0.1,1.9,0.6c0.4,0.4,0.7,1,0.7,1.8v2.8c0,0.3,0,0.6,0,0.9c0,0.3,0.1,0.6,0.3,0.9h-1.6V56.9z M196,55.7
				c0.3,0,0.6-0.1,0.9-0.3c0.3-0.1,0.4-0.3,0.4-0.6v-0.9h-1c-0.4,0-0.7,0.1-0.9,0.3c-0.1,0.1-0.3,0.4-0.3,0.7c0,0.3,0.1,0.4,0.3,0.6
				C195.6,55.7,195.7,55.7,196,55.7z"/>
			<path class="st1" d="M204.2,51.8h-0.6c-0.3,0-0.4,0-0.6,0.1c-0.1,0.1-0.3,0.3-0.4,0.4v4.5h-1.9v-6.7h1.6l0.1,1
				c0.1-0.3,0.3-0.6,0.6-0.9c0.3-0.1,0.6-0.3,0.9-0.3c0.1,0,0.1,0,0.3,0s0.1,0,0.3,0L204.2,51.8z"/>
			<path class="st1" d="M208.3,55.7c0.3,0,0.6-0.1,0.7-0.3c0.1-0.1,0.3-0.4,0.3-0.7h1.6l0,0c0,0.7-0.3,1.2-0.7,1.8
				c-0.6,0.4-1.2,0.7-1.9,0.7c-1,0-1.8-0.3-2.4-0.9c-0.6-0.6-0.7-1.5-0.7-2.5v-0.1c0-1,0.3-1.8,0.7-2.5c0.6-0.6,1.3-0.9,2.4-0.9
				c0.9,0,1.5,0.3,2.1,0.7c0.4,0.4,0.7,1,0.7,1.9l0,0h-1.6c0-0.3-0.1-0.6-0.3-0.9c-0.1-0.3-0.4-0.3-0.7-0.3c-0.4,0-0.9,0.1-1,0.6
				c-0.1,0.4-0.3,0.9-0.3,1.5v0.1c0,0.6,0.1,1,0.3,1.5C207.4,55.6,207.7,55.7,208.3,55.7z"/>
			<path class="st1" d="M214,51.1c0.1-0.3,0.4-0.6,0.7-0.7s0.6-0.3,1-0.3c0.7,0,1.2,0.3,1.6,0.7S218,52,218,53v3.9h-1.8v-4
				c0-0.6-0.1-0.9-0.3-1.2c-0.1-0.1-0.4-0.3-0.9-0.3c-0.3,0-0.4,0-0.6,0.1c-0.1,0.1-0.3,0.1-0.4,0.4v4.9h-1.8V47h1.8V51.1z"/>
			<path class="st1" d="M225,56.9h-1.9v-9.1h1.8v9.1H225z"/>
			<path class="st1" d="M228.5,50.2l0.1,1c0.3-0.3,0.4-0.6,0.9-0.7c0.3-0.1,0.7-0.3,1-0.3c0.7,0,1.2,0.1,1.6,0.6
				c0.4,0.4,0.6,1,0.6,2.1v4H231v-4.2c0-0.4-0.1-0.7-0.3-0.9c-0.1-0.1-0.4-0.3-0.9-0.3c-0.3,0-0.4,0-0.6,0.1s-0.3,0.3-0.4,0.4v4.8
				H227v-6.7H228.5z"/>
			<path class="st1" d="M237.9,55.1c0-0.1-0.1-0.4-0.3-0.4c-0.1,0-0.6-0.3-1-0.4c-0.7-0.1-1.3-0.4-1.8-0.7c-0.4-0.3-0.6-0.7-0.6-1.3
				c0-0.6,0.3-1,0.7-1.5s1.2-0.6,1.9-0.6c0.9,0,1.5,0.1,2.1,0.6c0.4,0.4,0.7,0.9,0.7,1.5l0,0h-1.8c0-0.3-0.1-0.4-0.3-0.6
				c-0.1-0.1-0.4-0.3-0.7-0.3c-0.3,0-0.6,0-0.7,0.1c-0.1,0.1-0.3,0.3-0.3,0.6c0,0.1,0.1,0.4,0.3,0.4c0.1,0.1,0.6,0.3,1,0.3
				c0.9,0.1,1.5,0.4,1.8,0.7c0.4,0.3,0.6,0.7,0.6,1.3c0,0.6-0.3,1-0.7,1.5c-0.6,0.4-1.2,0.6-2.1,0.6c-0.9,0-1.6-0.3-2.1-0.7
				c-0.4-0.4-0.7-1-0.7-1.5l0,0h1.6c0,0.3,0.1,0.6,0.3,0.7s0.4,0.3,0.9,0.3c0.3,0,0.6,0,0.7-0.1C237.8,55.6,237.9,55.3,237.9,55.1z"
				/>
			<path class="st1" d="M243.2,48.5v1.6h1.2v1.3h-1.2V55c0,0.3,0,0.4,0.1,0.6c0.1,0.1,0.3,0.1,0.4,0.1c0.1,0,0.1,0,0.3,0
				c0,0,0.1,0,0.3,0l0.1,1.3c-0.1,0-0.3,0.1-0.6,0.1c-0.1,0-0.3,0-0.6,0c-0.6,0-1-0.1-1.5-0.4c-0.3-0.3-0.4-0.9-0.4-1.6v-3.4h-1
				v-1.3h1v-1.6h1.8V48.5z"/>
			<path class="st1" d="M247.5,48.5h-1.8v-1.3h1.8V48.5z M247.5,56.9h-1.8v-6.7h1.8V56.9z"/>
			<path class="st1" d="M251.4,48.5v1.6h1.2v1.3h-1.2V55c0,0.3,0,0.4,0.1,0.6c0.1,0.1,0.3,0.1,0.4,0.1c0.1,0,0.1,0,0.3,0
				c0,0,0.1,0,0.3,0l0.1,1.3c-0.1,0-0.3,0.1-0.6,0.1c-0.1,0-0.3,0-0.6,0c-0.6,0-1-0.1-1.5-0.4c-0.3-0.3-0.4-0.9-0.4-1.6v-3.4h-1
				v-1.3h1v-1.6h1.8V48.5z"/>
			<path class="st1" d="M258,56c-0.1,0.3-0.4,0.6-0.7,0.9c-0.3,0.1-0.7,0.3-1,0.3c-0.7,0-1.3-0.3-1.6-0.7c-0.4-0.4-0.6-1.2-0.6-2.1
				v-4h1.8v4.2c0,0.4,0.1,0.9,0.3,1c0.1,0.1,0.4,0.3,0.7,0.3s0.6,0,0.7-0.1s0.4-0.3,0.4-0.4v-4.9h1.8v6.6h-1.5L258,56z"/>
			<path class="st1" d="M263.4,48.5v1.6h1.2v1.3h-1.2V55c0,0.3,0,0.4,0.1,0.6c0.1,0.1,0.3,0.1,0.4,0.1s0.1,0,0.3,0c0,0,0.1,0,0.3,0
				l0.1,1.3c-0.1,0-0.3,0.1-0.6,0.1c-0.1,0-0.3,0-0.6,0c-0.6,0-1-0.1-1.5-0.4c-0.3-0.3-0.4-0.9-0.4-1.6v-3.4h-1v-1.3h1v-1.6h1.8
				V48.5z"/>
			<path class="st1" d="M268.8,57c-1,0-1.8-0.3-2.4-0.9c-0.6-0.6-0.9-1.5-0.9-2.4v-0.3c0-1,0.3-1.8,0.9-2.5c0.6-0.6,1.3-1,2.2-1
				s1.6,0.3,2.1,0.9c0.4,0.6,0.7,1.3,0.7,2.2v1h-4l0,0c0,0.4,0.1,0.7,0.4,1c0.3,0.3,0.6,0.4,1,0.4c0.4,0,0.7,0,1-0.1
				s0.6-0.1,0.9-0.4l0.4,1.2c-0.3,0.3-0.6,0.4-1,0.6C269.8,57,269.4,57,268.8,57z M268.6,51.5c-0.3,0-0.6,0.1-0.7,0.4
				c-0.1,0.3-0.3,0.6-0.3,1l0,0h2.2v-0.1c0-0.4-0.1-0.7-0.3-0.9C269.4,51.5,269.1,51.5,268.6,51.5z"/>
		</g>
		<g>
			<path class="st1" d="M106.8,35.5c0-1,0.3-1.9,0.9-2.5c0.6-0.6,1.5-0.9,2.7-0.9c0.3,0,0.7,0,1,0s0.6,0.1,0.9,0.1
				c0.1,0,0.1,0,0.1,0.1v0.1v3.7c0,0.3,0,0.4,0.1,0.6c0.1,0.1,0.3,0.1,0.6,0.1h0.6v1.8h-0.6c-0.4,0-0.9,0-1.2-0.1
				c-0.3-0.1-0.6-0.3-0.7-0.6c-0.1,0.1-0.4,0.3-0.7,0.4c-0.3,0.1-0.6,0.1-0.9,0.1h-0.1c-0.4,0-0.7,0-1-0.1c-0.3-0.1-0.6-0.3-0.9-0.4
				c-0.3-0.3-0.4-0.4-0.6-0.9c-0.1-0.4-0.1-0.7-0.1-1.2V35.5z M107.8,29.5c0-0.1,0-0.1,0.1-0.3c0,0,0.1-0.1,0.3-0.1h0.9
				c0.1,0,0.1,0,0.3,0.1c0,0,0.1,0.1,0.1,0.3v1c0,0.1,0,0.1-0.1,0.1c0,0-0.1,0.1-0.3,0.1h-0.9c-0.1,0-0.1,0-0.3-0.1l-0.1-0.1V29.5z
				 M108.4,35.5c0,0.4,0.1,0.9,0.3,1c0.1,0.1,0.4,0.3,0.9,0.3h0.1c0.3,0,0.6,0,0.7-0.1c0.1-0.1,0.3-0.3,0.3-0.4v-2.5
				c0,0-0.1,0-0.3,0c-0.1,0-0.3,0-0.3,0c-0.6,0-1,0.1-1.3,0.4c-0.3,0.3-0.4,0.6-0.4,1.2C108.4,35.3,108.4,35.5,108.4,35.5z
				 M110.4,29.5c0-0.1,0-0.1,0.1-0.3c0,0,0.1-0.1,0.3-0.1h0.9c0.1,0,0.1,0,0.3,0.1c0,0,0.1,0.1,0.1,0.3v1c0,0.1,0,0.1-0.1,0.1
				c0,0-0.1,0.1-0.3,0.1h-0.9c-0.1,0-0.1,0-0.3-0.1l-0.1-0.1V29.5z"/>
			<path class="st1" d="M113.3,37.3c0,0,0-0.1,0.1-0.1c0.1,0,0.1,0,0.3,0h0.6c0.1,0,0.1,0,0.3,0c0.1,0,0.1,0,0.3,0
				c0.1,0,0.1-0.1,0.1-0.1s0.1-0.1,0.1-0.3v-3.4c0,0,0-0.1,0.1-0.1c0.1,0-0.1-0.1,0-0.1h1.2c0,0,0.1,0,0.1,0.1l0.1,0.1v3.6l0.1,0.1
				c0,0,0.1,0,0.3,0.1c0.1,0,0.1,0,0.3,0c0.1,0,0.1,0,0.3,0h0.3v1.8h-0.1c-0.3,0-0.7,0-1-0.1c-0.3,0-0.6-0.1-0.9-0.4
				c-0.1,0.1-0.3,0.1-0.4,0.3c-0.1,0-0.3,0.1-0.4,0.1c-0.1,0-0.3,0-0.4,0.1c-0.1,0-0.3,0-0.4,0h-0.6c-0.1,0-0.1,0-0.3,0
				c-0.1,0-0.1,0-0.1-0.1C113.3,38.8,113.3,37.3,113.3,37.3z M115.1,40.3c0-0.1,0-0.1,0.1-0.3l0.1-0.1h1c0.1,0,0.1,0,0.3,0.1
				c0,0,0.1,0.1,0.1,0.3v1c0,0,0,0.1-0.1,0.1c0,0-0.1,0.1-0.3,0.1h-1c-0.1,0-0.1,0-0.1-0.1l-0.1-0.1V40.3z"/>
			<path class="st1" d="M117.5,37.3c0,0,0-0.1,0.1-0.1c0.1,0,0.1,0,0.3,0h0.4c0.1,0,0.3,0,0.4-0.1c0.1,0,0.3-0.1,0.3-0.4v-2.7
				c0-0.1,0-0.1,0.1-0.1l0.1-0.1h1.2c0,0,0.1,0,0.1,0.1v0.1v3L121,37c0,0,0.1,0,0.3,0.1c0.1,0,0.1,0,0.3,0c0.1,0,0.1,0,0.3,0h0.1
				c0.1,0,0.1,0,0.3,0c0.1,0,0.1,0,0.3,0l0.1-0.1c0,0,0-0.1,0-0.3v-3.3c0,0,0-0.1,0.1-0.1l0.1-0.1h1.2c0,0,0.1,0,0.1,0.1l0.1,0.1V37
				c0,0.1,0.1,0.1,0.3,0.1c0.1,0,0.4,0,0.6,0h0.3c0.1,0,0.3,0,0.4,0s0.1-0.1,0.1-0.4s0-0.6,0-0.9s0-0.6,0-1c0-0.3,0-0.7,0-1
				c0-0.3,0-0.7,0-1v-0.1l0.1-0.1h1.2c0.1,0,0.1,0,0.1,0.1v0.1c0,0.3,0,0.6,0,0.9c0,0.3,0,0.4,0,0.7c0,0.3,0,0.4,0,0.7
				c0,0.3,0,0.4,0,0.7v0.7c0,0.3,0,0.6,0,0.7c0,0.1,0,0.6,0,0.7s0,0.1-0.1,0.3l-0.1,0.1c-0.1,0-0.4,0.1-0.7,0.1c-0.3,0-0.6,0-0.9,0
				h-0.1c-0.3,0-0.6,0-1-0.1c-0.3,0-0.7-0.1-0.9-0.3c-0.1,0.1-0.4,0.3-0.7,0.3s-0.6,0.1-0.9,0.1H122c-0.3,0-0.6,0-0.9-0.1
				c-0.3,0-0.6-0.1-0.7-0.3c-0.3,0.1-0.4,0.3-0.9,0.3c-0.3,0-0.6,0.1-0.9,0.1h-0.3c-0.1,0-0.1,0-0.3,0c-0.1,0-0.1,0-0.1-0.1v-1.2
				H117.5z"/>
			<path class="st1" d="M130.1,40.7c0-0.1,0.1-0.3,0.3-0.3h1.2c0.3,0,0.6,0,0.9,0c0.3,0,0.4-0.1,0.7-0.1c0.1-0.1,0.3-0.3,0.4-0.4
				c0.1-0.1,0.1-0.4,0.1-0.6v-0.4h-1c-1,0-1.8-0.3-2.4-0.7c-0.6-0.4-0.9-1.2-0.9-2.2v-0.3c0-1,0.3-1.9,0.9-2.5
				c0.6-0.6,1.5-0.9,2.7-0.9c0.1,0,0.3,0,0.6,0s0.4,0,0.6,0s0.3,0,0.4,0c0.1,0,0.3,0,0.4,0.1c0.1,0,0.1,0,0.1,0.1v0.1v4.3h1.2v1.8
				h-1.2v0.4c0,0.6-0.1,1-0.3,1.3s-0.4,0.6-0.7,0.9c-0.3,0.4-0.6,0.6-1,0.6c-0.4,0.1-0.9,0.1-1.3,0.1c-0.1,0-0.1,0-0.3,0
				s-0.3,0-0.4,0c-0.1,0-0.3,0-0.4,0c-0.1,0-0.3,0-0.3,0c-0.1-0.1-0.1-0.1-0.3-0.1v-0.1V40.7z M131.3,35.6c0,0.4,0.1,0.9,0.3,1.2
				c0.3,0.3,0.6,0.4,1,0.4h1V34c-0.3,0-0.6,0-0.9,0c-0.4,0-0.9,0.1-1.2,0.4c-0.3,0.3-0.4,0.7-0.4,1.2v0H131.3z"/>
			<path class="st1" d="M136.6,38.8c-0.1,0-0.1,0-0.3,0s-0.1,0-0.1-0.1v-1.3c0,0,0-0.1,0.1-0.1s0.1,0,0.3,0h5.8l-0.3-0.9l-0.3-0.6
				c-0.3-0.6-0.6-1-1.2-1.3c-0.4-0.3-1.2-0.4-2.1-0.4c0,0-0.1,0-0.3,0s-0.3,0-0.4,0s-0.3,0-0.3-0.1v-1c0-0.1,0.1-0.1,0.3-0.3
				c0.3,0,0.4-0.1,0.6-0.1c0.1,0,0.4,0,0.6,0c0.4,0,0.9,0,1.3,0.1s0.9,0.3,1.2,0.6c0.3,0.3,0.7,0.6,1,1c0.3,0.4,0.6,0.9,0.9,1.5
				l0.1,0.4c0,0,0,0.1,0.1,0.3c0,0.1,0.1,0.1,0.1,0.3c0,0.1,0.1,0.1,0.1,0.3s0,0.1,0.1,0.1l0.1,0.1h0.1h0.1v1.8h-8.1V38.8z"/>
			<path class="st1" d="M144.2,37.3c0,0,0-0.1,0.1-0.1c0.1,0,0.1,0,0.3,0h0.9c0.1,0,0.3,0,0.4,0c0,0,0.1-0.1,0.1-0.4v-7.9
				c0-0.1,0-0.1,0.1-0.1l0.1-0.1h1.2c0,0,0.1,0,0.1,0.1v0.1v7.9c0,0.3,0,0.4,0,0.7c0,0.3,0,0.6,0,0.7c0,0.1,0,0.1-0.1,0.3
				c0,0-0.1,0.1-0.3,0.1s-0.3,0-0.4,0c-0.1,0-0.3,0-0.6,0c-0.1,0-0.4,0-0.6,0s-0.4,0-0.6,0h-0.6c-0.1,0-0.1,0-0.3,0s-0.1,0-0.1-0.1
				v-1.2H144.2z"/>
			<path class="st1" d="M150,28.7c0,0,0-0.1,0.1-0.1l0.1-0.1h1.2c0.1,0,0.1,0,0.1,0.1l0.1,0.1v9.9c0,0,0,0.1-0.1,0.1
				s-0.1,0.1-0.1,0.1h-1.2c-0.1,0-0.1,0-0.1-0.1l-0.1-0.1V28.7z"/>
			<path class="st1" d="M165.6,37.1c0.1,0,0.3,0,0.4,0c0,0,0.1-0.1,0.1-0.4c0-0.4,0-1,0-1.6c0-0.6,0-1.2,0-1.8c0,0,0-0.1,0.1-0.1
				s0.1-0.1,0.1-0.1h1.2c0.1,0,0.1,0,0.1,0.1l0.1,0.1c0,0.3,0,0.6,0,0.7c0,0.1,0,0.4,0,0.6c0,0.1,0,0.4,0,0.6c0,0.1,0,0.4,0,0.6
				c0,0.6,0,1,0,1.5c0,0.4,0,0.7,0,0.9c0,0.1,0,0.1-0.1,0.3l-0.1,0.1c-0.1,0-0.3,0-0.4,0c-0.3,0-0.4,0-0.7,0c-0.3,0-0.6,0-0.9,0
				c-0.3,0-0.6,0-0.9,0h-3c-0.9,0-1.6-0.1-2.2-0.3c-0.6-0.1-1-0.4-1.3-0.7c-0.3-0.3-0.6-0.7-0.7-1.2c-0.1-0.4-0.1-1-0.1-1.6
				c0-0.4,0-0.9,0.1-1.5c0-0.1,0-0.1,0.1-0.1h0.1h1c0.1,0,0.3,0.1,0.3,0.3c0,0.4,0,0.7,0,0.9c0,0.4,0,0.7,0.1,1s0.3,0.6,0.4,0.7
				c0.1,0.1,0.6,0.3,0.9,0.4c0.4,0.1,0.9,0.1,1.5,0.1h3.6V37.1z M160.4,30.8c0-0.1,0-0.1,0.1-0.1c0,0,0.1-0.1,0.3-0.1h0.9
				c0.1,0,0.1,0,0.3,0.1l0.1,0.1v1c0,0,0,0.1-0.1,0.1c0,0-0.1,0.1-0.3,0.1h-0.9c-0.1,0-0.1,0-0.3-0.1l-0.1-0.1V30.8z M161.7,28.9
				c0-0.1,0-0.1,0.1-0.1l0.1-0.1h0.9c0.1,0,0.1,0,0.3,0.1c0.1,0.1,0.1,0.1,0.1,0.1v0.9c0,0.1,0,0.1-0.1,0.1c0,0-0.1,0.1-0.3,0.1H162
				c0,0-0.1,0-0.1-0.1l-0.1-0.1V28.9z M162.9,30.8c0-0.1,0-0.1,0.1-0.1l0.1-0.1h0.9c0.1,0,0.1,0,0.3,0.1l0.1,0.1v1
				c0,0,0,0.1-0.1,0.1c0,0-0.1,0.1-0.3,0.1h-0.9c-0.1,0-0.1,0-0.1-0.1l-0.1-0.1V30.8z"/>
			<path class="st1" d="M170.1,40.7c0-0.1,0.1-0.3,0.3-0.3h1.2c0.3,0,0.6,0,0.9,0s0.4-0.1,0.7-0.1c0.1-0.1,0.3-0.3,0.4-0.4
				c0.1-0.1,0.1-0.4,0.1-0.6v-0.4h-1c-1,0-1.8-0.3-2.4-0.7c-0.6-0.4-0.9-1.2-0.9-2.2v-0.3c0-1,0.3-1.9,0.9-2.5
				c0.6-0.6,1.5-0.9,2.7-0.9c0.1,0,0.3,0,0.6,0s0.4,0,0.6,0c0.1,0,0.3,0,0.4,0c0.1,0,0.3,0,0.4,0.1c0.1,0,0.1,0,0.1,0.1v0.1v4.3h1.2
				v1.8h-1.2v0.4c0,0.6-0.1,1-0.3,1.3s-0.4,0.6-0.7,0.9c-0.3,0.1-0.6,0.3-1,0.4c-0.4,0.1-0.9,0.1-1.3,0.1c-0.1,0-0.1,0-0.3,0
				s-0.3,0-0.4,0c-0.1,0-0.3,0-0.4,0c-0.1,0-0.3,0-0.3,0c-0.1,0-0.1,0-0.1-0.1c0-0.1,0-0.1,0-0.1v-0.9H170.1z M171.4,35.6
				c0,0.4,0.1,0.9,0.3,1.2c0.3,0.3,0.6,0.4,1,0.4h1V34c-0.3,0-0.6,0-0.9,0c-0.4,0-0.9,0.1-1.2,0.4c-0.3,0.3-0.4,0.7-0.4,1.2v0H171.4
				z"/>
			<path class="st1" d="M176.7,38.8c-0.1,0-0.1,0-0.3,0c-0.1,0-0.1,0-0.1-0.1v-1.3c0,0,0-0.1,0.1-0.1c0.1,0,0.1,0,0.3,0h5.8
				l-0.3-0.9l-0.3-0.6c-0.3-0.6-0.6-1-1.2-1.3c-0.4-0.3-1.2-0.4-2.1-0.4c0,0-0.1,0-0.3,0s-0.3,0-0.4,0c-0.1,0-0.3,0-0.3-0.1v-1
				c0-0.1,0.1-0.1,0.3-0.3c0.3,0,0.4-0.1,0.6-0.1s0.4,0,0.7,0c0.4,0,0.9,0,1.3,0.1s0.9,0.3,1.2,0.6c0.3,0.3,0.7,0.6,1,1
				c0.3,0.4,0.6,0.9,0.9,1.5l0.1,0.4c0,0,0,0.1,0.1,0.3c0,0.1,0.1,0.1,0.1,0.3c0,0.1,0.1,0.1,0.1,0.3s0,0.1,0.1,0.1l0.1,0.1h0.1h0.1
				v1.8h-8.2V38.8z"/>
			<path class="st1" d="M184.8,38.8c-0.1,0-0.1,0-0.3,0s-0.1,0-0.1-0.1v-1.3c0,0,0-0.1,0.1-0.1s0.1,0,0.3,0h3v1.8h-3V38.8z"/>
			<path class="st1" d="M187.2,37.3c0,0,0-0.1,0.1-0.1s0.1,0,0.3,0h0.6c0.1,0,0.1,0,0.3,0c0.1,0,0.1,0,0.3,0S189,37,189,37
				s0.1-0.1,0.1-0.3v-3.4c0,0,0-0.1,0.1-0.1l0.1-0.1h1.2c0,0,0.1,0,0.1,0.1v0.1v3.6l0.1,0.1c0,0,0.1,0,0.3,0.1c0.1,0,0.1,0,0.3,0
				c0.1,0,0.1,0,0.3,0h0.3v1.8H192c-0.3,0-0.7,0-1-0.1c-0.3,0-0.6-0.1-0.9-0.4c-0.1,0.1-0.3,0.1-0.4,0.3c-0.1,0-0.3,0.1-0.4,0.1
				c-0.1,0-0.3,0-0.4,0.1c-0.1,0-0.3,0-0.4,0h-0.3c-0.1,0-0.1,0-0.3,0c-0.1,0-0.1,0-0.1-0.1v-1.5H187.2z M189,40.3
				c0-0.1,0-0.1,0.1-0.3l0.1-0.1h1c0.1,0,0.1,0,0.3,0.1c0,0,0.1,0.1,0.1,0.3v1c0,0,0,0.1-0.1,0.1c0,0-0.1,0.1-0.3,0.1h-1
				c-0.1,0-0.1,0-0.1-0.1l-0.1-0.1V40.3z"/>
			<path class="st1" d="M192,38.8c-0.1,0-0.1,0-0.3,0c-0.1,0-0.1,0-0.1-0.1v-1.3c0,0,0-0.1,0.1-0.1s0.1,0,0.3,0h3v1.8h-3V38.8z"/>
			<path class="st1" d="M194.4,37.3c0,0,0-0.1,0.1-0.1c0.1,0,0.1,0,0.3,0h0.9c0.1,0,0.3,0,0.4,0c0.1,0,0.1-0.1,0.1-0.4v-7.9
				c0-0.1,0-0.1,0.1-0.1l0.1-0.1h1.2c0,0,0.1,0,0.1,0.1l0.1,0.1v7.9c0,0.3,0,0.4,0,0.7c0,0.3,0,0.6,0,0.7c0,0.1,0,0.1-0.1,0.3
				c0,0-0.1,0.1-0.3,0.1c-0.1,0-0.3,0-0.4,0c-0.1,0-0.3,0-0.6,0c-0.1,0-0.4,0-0.6,0c-0.1,0-0.4,0-0.6,0h-0.6c-0.1,0-0.1,0-0.3,0
				c-0.1,0-0.1,0-0.1-0.1L194.4,37.3L194.4,37.3z"/>
			<path class="st1" d="M202,40.7c0-0.1,0.1-0.1,0.3-0.1h0.3c0.3,0,0.4,0,0.6,0c0.1,0,0.3-0.1,0.4-0.1c0.1-0.1,0.1-0.1,0.3-0.3
				c0-0.1,0-0.4,0-0.6v-6.1c0,0,0-0.1,0.1-0.1l0.1-0.1h1.2c0,0,0.1,0,0.1,0.1l0.1,0.1v3.9h1.2v1.8h-1.2v0.6c0,0.3,0,0.6,0,0.9
				c0,0.3-0.1,0.4-0.1,0.7c-0.1,0.4-0.4,0.6-0.9,0.9c-0.3,0.1-0.9,0.3-1.3,0.3c0,0-0.1,0-0.4,0c-0.1,0-0.3,0-0.4,0
				c-0.1,0-0.1-0.1-0.1-0.3v-1.5H202z"/>
			<path class="st1" d="M206.8,38.8c-0.1,0-0.1,0-0.3,0c-0.1,0-0.1,0-0.1-0.1v-1.3c0,0,0-0.1,0.1-0.1c0.1,0,0.1,0,0.3,0h3v1.8h-3
				V38.8z"/>
			<path class="st1" d="M209.6,38.8c-0.1,0-0.1,0-0.3,0c-0.1,0-0.1,0-0.1-0.1v-1.3c0,0,0-0.1,0.1-0.1c0.1,0,0.1,0,0.3,0h3v1.8h-3
				V38.8z"/>
			<path class="st1" d="M212.2,37.3c0,0,0-0.1,0.1-0.1c0.1,0,0.1,0,0.3,0h1.5v-8.4c0-0.1,0-0.1,0.1-0.1l0.1-0.1h1.2
				c0,0,0.1,0,0.1,0.1l0.1,0.1v4.2c0.3-0.1,0.4-0.3,0.7-0.4c0.3-0.1,0.6-0.1,0.9-0.3c0.3,0,0.6-0.1,0.7-0.1c0.3,0,0.4,0,0.6,0
				c0.6,0,1,0,1.6,0.1c0.4,0.1,0.9,0.3,1.2,0.6c0.3,0.3,0.6,0.6,0.7,1.2c0.1,0.4,0.3,1,0.3,1.6v0.3c0,0,0,0.1,0,0.3s0,0.1,0,0.3
				c0,0.1,0,0.1,0,0.3c0,0.1,0,0.1,0,0.1h1v1.8h-11.2c-0.1,0-0.1,0-0.3,0c-0.1,0-0.1,0-0.1-0.1V37.3z M220.7,37.1
				c0.1,0,0.1,0,0.3-0.1c0-0.1,0.1-0.3,0.1-0.7v-0.3c0-0.4,0-0.7-0.1-1c-0.1-0.3-0.3-0.4-0.4-0.7c-0.1-0.1-0.4-0.3-0.7-0.3
				c-0.3,0-0.7-0.1-1.2-0.1c-0.1,0-0.3,0-0.6,0c-0.1,0-0.4,0-0.7,0.1c-0.3,0-0.4,0.1-0.7,0.1c-0.3,0.1-0.4,0.1-0.6,0.3V37
				c0.1,0,0.4,0,0.7,0c0.3,0,0.6,0,0.9,0h3.1V37.1z"/>
			<path class="st1" d="M223.3,37.3c0,0,0-0.1,0.1-0.1c0.1,0,0.1,0,0.3,0h1.5c-0.3-0.3-0.6-0.9-0.6-1.6v-0.3c0-0.4,0.1-0.9,0.3-1.3
				c0.1-0.4,0.4-0.7,0.7-0.9c0.3-0.3,0.6-0.4,1-0.6s0.9-0.1,1.5-0.1c0.1,0,0.4,0,0.6,0c0.1,0,0.4,0,0.6,0c0.1,0,0.4,0,0.6,0.1
				c0.1,0,0.3,0,0.4,0.1c0.1,0,0.1,0,0.1,0.1v0.1v3.6c0,0.3,0,0.7,0,1.2c0,0.4,0,0.7,0,1.2c0,0.1,0,0.1-0.1,0.1c0,0-0.1,0-0.3,0
				c-0.4,0-0.7,0-1,0c-0.3,0-0.7,0-1,0h-4.3c-0.1,0-0.1,0-0.3,0c-0.1,0-0.1,0-0.1-0.1V37.3z M225.6,29.3c0-0.1,0-0.1,0.1-0.3
				c0,0,0.1-0.1,0.3-0.1h0.9c0.1,0,0.1,0,0.3,0.1c0,0,0.1,0.1,0.1,0.3v1c0,0.1,0,0.1-0.1,0.1c0,0-0.1,0.1-0.3,0.1h-0.9
				c-0.1,0-0.1,0-0.3-0.1l-0.1-0.1V29.3z M226.4,35.5c0,0.6,0.1,0.9,0.3,1.2c0.3,0.3,0.6,0.4,1,0.4c0.1,0,0.3,0,0.6,0
				c0.1,0,0.4,0,0.4,0v-3.4c-0.3,0-0.6,0-0.9,0c-1,0-1.6,0.4-1.6,1.5v0.3H226.4z M228.2,29.3c0-0.1,0-0.1,0.1-0.3
				c0,0,0.1-0.1,0.3-0.1h0.9c0.1,0,0.1,0,0.3,0.1c0,0,0.1,0.1,0.1,0.3v1c0,0.1,0,0.1-0.1,0.1c0,0-0.1,0.1-0.3,0.1h-0.9
				c-0.1,0-0.1,0-0.3-0.1l-0.1-0.1V29.3z"/>
			<path class="st1" d="M235.7,37.3c0,0,0-0.1,0.1-0.1h0.1h3.6v-1.2c0-0.3,0-0.6-0.1-0.9c-0.1-0.3-0.1-0.4-0.4-0.6
				c-0.1-0.1-0.4-0.3-0.7-0.4c-0.3-0.1-0.6-0.1-1-0.1H237c0,0-0.1,0-0.3,0c-0.1,0-0.1,0-0.3,0c-0.1,0-0.1,0-0.1,0
				c-0.1,0-0.3,0-0.3-0.1v-1v-0.1l0.1-0.1c0.3,0,0.4,0,0.7-0.1c0.3,0,0.4,0,0.6,0c0.6,0,1.2,0.1,1.6,0.3c0.4,0.1,0.7,0.4,1,0.7
				c0.3,0.3,0.4,0.7,0.6,1.2s0.1,0.9,0.1,1.3V37h0.9v1.8h-6.1h-0.1l-0.1-0.1v-1.3H235.7z"/>
			<path class="st1" d="M241.8,38.8c-0.1,0-0.1,0-0.3,0c-0.1,0-0.1,0-0.1-0.1v-1.3c0,0,0-0.1,0.1-0.1c0.1,0,0.1,0,0.3,0h3v1.8h-3
				V38.8z"/>
			<path class="st1" d="M244.8,38.8c-0.1,0-0.1,0-0.3,0c-0.1,0-0.1,0-0.1-0.1v-1.5c0,0,0-0.1,0.1-0.1c0.1,0,0.1,0,0.3,0h1.3v-4
				c0-0.1,0-0.3,0.1-0.3c0.1,0,0.1-0.1,0.3-0.1c0.3-0.1,0.6-0.1,1-0.1c0.3,0,0.7,0,1,0c0.4,0,1,0,1.3,0.1c0.4,0.1,0.7,0.3,1,0.4
				c0.3,0.3,0.6,0.6,0.7,0.9c0.1,0.3,0.3,0.7,0.3,1.3c0,0.1,0,0.3,0,0.4s0,0.3,0,0.4c0,0.3,0,0.4-0.1,0.7c0,0.1-0.1,0.4-0.3,0.6
				c0.1,0,0.3,0,0.4,0c0.1,0,0.3,0,0.4,0h0.6v1.8h-0.3c-0.1,0-0.3,0-0.4,0c-0.1,0-0.3,0-0.3,0v0.4c0,1.9-1,3-2.8,3
				c-0.6,0-1,0-1.3-0.1c-0.4-0.1-0.7-0.3-0.9-0.6c-0.3-0.3-0.4-0.6-0.4-0.9c-0.1-0.4-0.1-0.7-0.1-1.3v-0.3h-1.6V38.8z M249.6,38.6
				c-0.1,0-0.4,0.1-0.7,0.1c-0.3,0-0.6,0-0.9,0v0.3c0,0.6,0.1,1,0.3,1.2c0.1,0.3,0.6,0.4,1,0.4s0.7-0.1,0.9-0.4
				c0.1-0.3,0.3-0.6,0.3-1.2c0-0.1,0-0.3,0-0.4s0-0.3,0-0.4C250.2,38.5,249.9,38.6,249.6,38.6z M248.7,37.1c0.6,0,1-0.1,1.3-0.4
				c0.3-0.3,0.3-0.7,0.3-1.3v-0.1c0-0.6-0.1-0.9-0.4-1.2c-0.3-0.1-0.7-0.3-1.2-0.3c-0.1,0-0.3,0-0.4,0c-0.1,0-0.3,0-0.3,0V37h0.7
				V37.1z"/>
			<path class="st1" d="M252.6,37.3c0,0,0-0.1,0.1-0.1c0.1,0,0.1,0,0.3,0h1.9l-1-2.7v-0.1c0-0.1,0-0.1,0-0.1v-0.7c0,0,0-0.1,0.1-0.1
				l0.1-0.1c0.1-0.1,0.3-0.3,0.6-0.3c0.3-0.1,0.4-0.1,0.7-0.3c0.3-0.1,0.6-0.1,0.7-0.1c0.3,0,0.6,0,0.7,0c0.4,0,0.9,0,1.3,0.1
				c0.4,0.1,0.7,0.3,1,0.4c0.3,0.1,0.6,0.4,0.7,0.9c0.1,0.3,0.3,0.7,0.3,1.3v0.3c0,0.1,0,0.3,0,0.6c0,0.1-0.1,0.4-0.1,0.6
				c0,0.1-0.1,0.3-0.1,0.4c-0.1,0.1-0.1,0.3-0.3,0.3h1.6v1.8H253c-0.1,0-0.1,0-0.3,0c-0.1,0-0.1,0-0.1-0.1V37.3z M257.5,37.1
				c0.1,0,0.4-0.1,0.6-0.3c0.1-0.1,0.3-0.3,0.4-0.4s0.1-0.3,0.3-0.6c0-0.1,0.1-0.4,0.1-0.6V35c0-0.4-0.1-0.9-0.4-1
				c-0.3-0.3-0.6-0.3-1.2-0.3c-0.1,0-0.4,0-0.7,0c-0.3,0-0.6,0.1-0.9,0.3l1.2,3h0.6V37.1z"/>
			<path class="st1" d="M261.4,38.8c-0.1,0-0.1,0-0.3,0c-0.1,0-0.1,0-0.1-0.1v-1.3c0,0,0-0.1,0.1-0.1s0.1,0,0.3,0h3v1.8h-3V38.8z"/>
			<path class="st1" d="M263.8,37.3c0,0,0-0.1,0.1-0.1s0.1,0,0.3,0h0.4h0.1c0.1,0,0.1,0,0.3,0c0.1,0,0.1,0,0.1-0.1l0.1-0.1
				c0-0.1,0-0.1,0-0.3v-1.2c0-1,0.3-1.8,0.9-2.2c0.6-0.4,1.3-0.7,2.2-0.7s1.6,0.3,2.2,0.7c0.6,0.4,0.7,1.2,0.7,2.2v0.6
				c0,1-0.3,1.8-0.7,2.2c-0.4,0.4-1.2,0.7-2.2,0.7c-0.4,0-0.9,0-1.3-0.1c-0.4-0.1-0.7-0.3-0.9-0.6c-0.1,0.1-0.4,0.3-0.7,0.4
				s-0.6,0.1-1,0.1h-0.1c-0.1,0-0.1,0-0.3,0c-0.1,0-0.1,0-0.1-0.1v-1.3H263.8z M267.3,35.9c0,0.1,0,0.4,0,0.6c0,0.3,0.1,0.6,0.4,0.7
				c0.1,0.1,0.4,0.1,0.9,0.1c0.4,0,0.7-0.1,1-0.3c0.1-0.3,0.3-0.6,0.3-1.2v-0.4c0-0.6-0.1-0.9-0.3-1.2c-0.1-0.3-0.6-0.3-1-0.3
				c-0.4,0-0.7,0.1-1,0.4c-0.1,0.3-0.3,0.6-0.3,1.2V35.9L267.3,35.9z"/>
		</g>
		<g>
			<path class="st1" d="M232.4,23.8l-1.5-1.5c-0.9,0.6-2.1,0.9-3.4,0.9c-1.9,0-3.4-0.7-4.6-1.9c-1.8-1.8-1.6-3.9-1.6-6.9
				s0-5.1,1.6-6.9c1.2-1.2,2.7-1.9,4.6-1.9c1.9,0,3.4,0.7,4.6,1.9c1.8,1.8,1.8,3.9,1.8,6.9c0,2.5,0,4.5-1,6.1l1.5,1.5L232.4,23.8z
				 M229.5,9.6c-0.4-0.6-1.2-0.9-2.1-0.9s-1.6,0.3-2.2,0.9c-0.6,0.7-0.9,1.5-0.9,4.8s0.1,4.2,0.9,4.9c0.4,0.6,1.2,0.9,2.2,0.9
				c0.4,0,0.7-0.1,1-0.3l-1.5-1.5l1.8-1.8l1.3,1.3c0.3-0.7,0.3-1.8,0.3-3.4C230.4,11.1,230.1,10.2,229.5,9.6z"/>
			<path class="st1" d="M243,23.2c-1.8,0-3.4-0.6-4.6-1.9c-0.7-0.7-1.2-1.6-1.3-2.5c-0.1-0.9-0.3-2.4-0.3-4.3s0.1-3.3,0.3-4.3
				c0.1-1,0.6-1.8,1.3-2.5c1.2-1.2,2.8-1.9,4.6-1.9c3.3,0,5.8,1.9,6.4,5.5H246c-0.3-1.5-1.3-2.4-2.8-2.4c-0.9,0-1.6,0.3-2.1,0.9
				c-0.7,0.7-0.9,1.5-0.9,4.9s0.1,4.2,0.9,4.9c0.4,0.6,1.2,0.9,2.1,0.9c1.6,0,2.5-0.9,2.8-2.4h3.4C248.7,21.3,246.3,23.2,243,23.2z"
				/>
			<path class="st1" d="M261.4,23.1l-3.4-6.9h-2.4v6.9h-3.4V5.7h6.7c3.6,0,5.7,2.4,5.7,5.2c0,2.4-1.5,3.9-3.1,4.5l3.9,7.5h-3.9V23.1
				z M258.9,8.7h-3.1v4.6h3.1c1.5,0,2.4-0.9,2.4-2.2S260.4,8.7,258.9,8.7z"/>
			<path class="st1" d="M268.2,23.1V5.7h3.4v17.4C271.6,23.1,268.2,23.1,268.2,23.1z"/>
		</g>
		<g>
			<g>
				<g>
					<rect x="3.1" y="64.8" class="st2" width="268.5" height="1.6"/>
					<g>
						<g>
							<g>
								<g>
									<path class="st2" d="M72.2,85l-2.1,2.1l7.2,7.2H61.7V77.3l-3.1,3v14.2h-9.9V85l-3.1,3v6.4c0,0-10.9,0-11.7,0
										c1.2-1.3,2.1-3.1,1.8-5.1c-0.3-2.5-2.2-4.6-5.7-4.6s-5.2,2.1-5.7,4.6c-0.3,1.9,0.6,3.7,1.8,5.1c-0.6,0-11.7,0-11.7,0v-9.3
										H9.3C6,85.2,4,87.3,4,91.5c0,4.5,3,6.1,5.2,6.1c4.5,0,4.5,0,75.3,0L72.2,85z M11.4,94.5H9.4c-1.3,0-2.2-1.5-2.2-3
										c0-1.3,0.4-3.3,2.2-3.3h1.9C11.4,88.2,11.4,94.5,11.4,94.5z M30.2,93.7c-1.5-0.9-2.5-2.7-2.4-4.2c0.1-1.2,1-1.9,2.4-1.9
										c1.2,0,2.1,0.9,2.2,1.9C32.8,91,31.7,92.8,30.2,93.7z"/>
								</g>
							</g>
							<g>
								
									<rect x="71" y="79.5" transform="matrix(0.7071 -0.7071 0.7071 0.7071 -36.0578 74.9873)" class="st2" width="3" height="3"/>
							</g>
							<g>
								
									<rect x="48" y="99.9" transform="matrix(0.7071 -0.7071 0.7071 0.7071 -57.1668 64.7094)" class="st2" width="3" height="3"/>
							</g>
							<g>
								
									<rect x="43.7" y="99.9" transform="matrix(0.7071 -0.7071 0.7071 0.7071 -58.4616 61.6619)" class="st2" width="3" height="3"/>
							</g>
							<g>
								
									<rect x="28.7" y="79.5" transform="matrix(0.7071 -0.7071 0.7071 0.7071 -48.3988 45.1037)" class="st2" width="3" height="3"/>
							</g>
							<g>
								<g>
									
										<rect x="11" y="79.5" transform="matrix(0.7071 -0.7071 0.7071 0.7071 -53.6459 32.5326)" class="st2" width="3" height="3"/>
								</g>
								<g>
									
										<rect x="6.6" y="79.6" transform="matrix(0.7071 -0.7071 0.7071 0.7071 -54.9408 29.4851)" class="st2" width="3" height="3"/>
								</g>
							</g>
						</g>
						<g>
							<g>
								<g>
									<path class="st2" d="M167.4,85l-2.1,2.1l7.2,7.2h-13.6c-1.6,0-2.4-0.6-2.4-1.6c0-3.4-1.9-6.3-5.5-6.3s-5.5,2.5-5.7,6.3
										c-0.1,1.6-1.6,1.5-3,1.6h-8.5v-9.4l-3.1,3v6.4H125v3h18.1c1,0,2.1-0.1,2.8-0.6c0.9,1.8,2.5,2.8,4.8,2.8s3.9-1,4.8-3
										c1,0.4,2.2,0.6,3.3,0.7l0,0h20.8L167.4,85z M150.8,96.7c-1.3,0-2.2-0.9-2.2-3.7c0-2.8,0.9-3.7,2.2-3.7s2.2,0.9,2.2,3.9
										C153,95.7,152.1,96.7,150.8,96.7z"/>
								</g>
							</g>
						</g>
						<g>
							<g>
								<path class="st2" d="M117.7,97.5V85l-3.1,3v6.4H106c-1.8,0-3-0.9-3-2.2v-7h-3.3v11.7c0,1.6-0.6,2.4-2.2,2.4
									s-2.4-0.9-2.4-2.4V85.2h-3.3v11.7c0,3.3,2.2,5.4,5.2,5.5c0.3,0,0.4,0,0.7,0c3.1,0,5.2-2.2,5.2-5.4v-0.1
									c0.7,0.4,1.6,0.7,2.5,0.7h12.1V97.5z"/>
							</g>
							<g>
								
									<rect x="96" y="79.5" transform="matrix(0.7071 -0.7071 0.7071 0.7071 -28.7188 92.6538)" class="st2" width="3" height="3"/>
							</g>
							<g>
								
									<rect x="114.7" y="99.9" transform="matrix(0.7071 -0.7071 0.7071 0.7071 -37.6668 111.8406)" class="st2" width="3" height="3"/>
							</g>
						</g>
						<g>
							<g>
								<g>
									<g>
										<path class="st2" d="M229.1,97.5c1.6-0.1,3-0.7,3.7-1.9c0.9,1.3,2.2,1.9,3.9,1.9c3.6,0,5.5-2.5,5.5-6.6
											c0-4-2.1-6.6-5.5-6.6c-3.3,0-5.4,2.2-5.5,5.8c-0.1,1.8,0,4.3-2.8,4.3h-10.2l3.3-3c0-3.7-2.7-6.9-7.2-6.9
											c-4.5,0-7.2,3-7.2,6.9l3.3,3h-12.4v-9.3h-5.4c-3.3,0-5.2,2.1-5.2,6.3c0,4.5,3,6.1,5.2,6.1C195,97.5,229.1,97.5,229.1,97.5
											z M236.7,87c1.3,0,2.2,0.9,2.2,3.9c0,2.7-0.9,3.7-2.2,3.7s-2.2-0.9-2.2-3.7C234.5,88,235.4,87,236.7,87z M194.5,94.5h-1.9
											c-1.3,0-2.2-1.5-2.2-3c0-1.3,0.4-3.3,2.2-3.3h1.9V94.5z M210.5,90.6c0.1-1.6,1.6-3.1,3.7-3c2.2,0,3.6,1.5,3.7,3l-3.7,3.3
											C213.4,93.3,211.4,91.5,210.5,90.6z"/>
									</g>
								</g>
								<g>
									<polygon class="st2" points="269.7,97.5 257.2,85.2 255.1,87.3 262.3,94.5 249,94.5 249,77.3 246,80.3 246,97.5 									
										"/>
								</g>
								<g>
									
										<rect x="257.9" y="99.9" transform="matrix(0.7071 -0.7071 0.7071 0.7071 4.3154 213.1413)" class="st2" width="3" height="3"/>
								</g>
							</g>
							<g>
								<g>
									
										<rect x="194.8" y="79.4" transform="matrix(0.7071 -0.7071 0.7071 0.7071 0.3119 162.4708)" class="st2" width="3" height="3"/>
								</g>
								<g>
									
										<rect x="190.5" y="79.4" transform="matrix(0.7071 -0.7071 0.7071 0.7071 -0.9828 159.4232)" class="st2" width="3" height="3"/>
								</g>
							</g>
						</g>
					</g>
					<g>
						<path class="st2" d="M10,122.3v-5.2H5.8v5.2H3.4v-12.4h2.4v5.1H10v-5.1h2.4v12.4H10z"/>
						<path class="st2" d="M22.5,122.3l-0.7-2.2h-4.3l-0.9,2.2h-2.5l4.5-12.4h1.9l4.5,12.4H22.5z M19.5,113.6l-1.5,4.5h3L19.5,113.6
							z"/>
						<path class="st2" d="M35.3,122.3v-7.2l-2.4,4.6h-1.6l-2.4-4.6v7.2h-2.4v-12.4h2.4l3.3,6.7l3.3-6.7h2.4v12.4
							C37.9,122.3,35.3,122.3,35.3,122.3z"/>
						<path class="st2" d="M47.6,122.3l-0.7-2.2h-4.3l-0.7,2.2h-2.5l4.5-12.4h1.9l4.5,12.4H47.6z M44.8,113.6l-1.5,4.5h3.1
							L44.8,113.6z"/>
						<path class="st2" d="M59.4,121.1c-0.7,0.7-1.9,1.2-3.3,1.2h-4.5v-12.4h4.5c1.3,0,2.4,0.3,3.3,1.2c1.3,1.3,1.2,3.1,1.2,4.9
							C60.8,118,60.9,119.8,59.4,121.1z M57.8,112.9c-0.4-0.4-1-0.7-1.8-0.7h-1.8v8.1H56c0.9,0,1.3-0.3,1.8-0.7
							c0.4-0.6,0.4-1.5,0.4-3.3C58.4,114.2,58.2,113.3,57.8,112.9z"/>
						<path class="st2" d="M72.5,122.3h-5.2v-12.4h4.9c2.4,0,3.9,1.3,3.9,3.4c0,1.3-0.9,2.2-1.5,2.5c0.7,0.3,1.6,1.2,1.6,2.8
							C76.2,121.1,74.7,122.3,72.5,122.3z M72,112.1h-2.4v2.8H72c1,0,1.6-0.6,1.6-1.5C73.7,112.6,73.1,112.1,72,112.1z M72.2,117.1
							h-2.5v3h2.5c1,0,1.6-0.7,1.6-1.5S73.4,117.1,72.2,117.1z"/>
						<path class="st2" d="M78.8,122.3v-12.4h2.4v12.4H78.8z"/>
						<path class="st2" d="M91.5,122.3l-4.9-7.6v7.6h-2.4v-12.4h2.1l4.9,7.6v-7.6h2.4v12.4H91.5z"/>
						<path class="st2" d="M107.8,122.3l-3.1-5.7l-1.6,1.9v3.7h-2.4v-12.4h2.4v5.4l4.3-5.4h3l-4.2,4.9l4.3,7.5
							C110.5,122.3,107.8,122.3,107.8,122.3z"/>
						<path class="st2" d="M118.7,122.3v-5.2h-4.2v5.2h-2.4v-12.4h2.4v5.1h4.2v-5.1h2.4v12.4H118.7z"/>
						<path class="st2" d="M131.2,122.3l-0.7-2.2h-4.3l-0.7,2.2h-2.5l4.5-12.4h1.9l4.5,12.4H131.2z M128.3,113.6l-1.5,4.5h3.1
							L128.3,113.6z"/>
						<path class="st2" d="M135.2,122.3v-12.4h2.4v10.3h5.7v2.1H135.2z"/>
						<path class="st2" d="M145.2,122.3v-12.4h2.4v12.4H145.2z"/>
						<path class="st2" d="M153,112.1v3h4.9v2.1H153v5.1h-2.4v-12.4h8.2v2.1H153V112.1z"/>
						<path class="st2" d="M167.9,122.3l-0.7-2.2h-4.3l-0.7,2.2h-2.5l4.5-12.4h1.9l4.5,12.4H167.9z M165,113.6l-1.5,4.5h3.1
							L165,113.6z"/>
						<path class="st2" d="M180.4,122.5c-2.5,0-4.6-1.8-4.6-4.3v-8.2h2.4v8.1c0,1.5,0.9,2.2,2.1,2.2c1.3,0,2.1-0.9,2.1-2.2v-8.1h2.4
							v8.2C184.9,120.7,183,122.5,180.4,122.5z"/>
						<path class="st2" d="M195.1,122.3l-4.9-7.6v7.6h-2.4v-12.4h2.1l4.9,7.6v-7.6h2.4v12.4H195.1z"/>
						<path class="st2" d="M200,122.3v-12.4h2.4v12.4H200z"/>
						<path class="st2" d="M209.9,122.3h-1.8l-4-12.4h2.5l2.5,8.1l2.5-8.1h2.5L209.9,122.3z"/>
						<path class="st2" d="M215.5,122.3v-12.4h8.2v2.1H218v2.8h4.9v2.1H218v3h5.7v2.1h-8.2V122.3z"/>
						<path class="st2" d="M232.7,122.3l-2.4-4.9h-1.8v4.9h-2.4v-12.4h4.9c2.5,0,4,1.8,4,3.7c0,1.8-1,2.8-2.2,3.3l2.8,5.4
							C235.7,122.3,232.7,122.3,232.7,122.3z M230.7,112.1h-2.2v3.1h2.2c1,0,1.8-0.7,1.8-1.6S231.9,112.1,230.7,112.1z"/>
						<path class="st2" d="M240.9,122.5c-1.9,0-3.3-0.4-4.5-1.6l1.5-1.5c0.7,0.7,1.8,1,3,1c1.5,0,2.2-0.6,2.2-1.5
							c0-0.4-0.1-0.7-0.4-1c-0.3-0.3-0.4-0.3-1-0.4l-1.5-0.1c-1-0.1-1.8-0.4-2.4-1c-0.6-0.6-0.9-1.3-0.9-2.4c0-2.2,1.6-3.7,4.3-3.7
							c1.6,0,3,0.4,4,1.5l-1.5,1.5c-0.7-0.7-1.8-0.9-2.5-0.9c-1.3,0-1.9,0.7-1.9,1.5c0,0.3,0.1,0.6,0.3,0.9c0.3,0.3,0.6,0.4,1.2,0.4
							l1.5,0.1c1.2,0.1,1.8,0.4,2.4,0.9c0.6,0.6,0.9,1.5,0.9,2.7C245.6,121.1,243.5,122.5,240.9,122.5z"/>
						<path class="st2" d="M247.8,122.3v-12.4h2.4v12.4H247.8z"/>
						<path class="st2" d="M257.8,112.1v10.3h-2.4v-10.3h-3.3v-2.1h9v2.1H257.8z"/>
						<path class="st2" d="M267.9,117.2v5.1h-2.4v-5.1l-3.7-7.3h2.7l2.4,4.9l2.2-4.9h2.7L267.9,117.2z"/>
					</g>
				</g>
			</g>
		</g>
		<g>
			<g>
				<polygon class="st3" points="344.4,62.7 344.4,62.7 344.4,6 344.4,6 316.1,34.3 				"/>
				<polygon class="st1" points="287.6,6 287.6,62.7 316.1,34.3 				"/>
			</g>
			<g>
				<polygon class="st3" points="404.4,6 347.7,6 347.7,6 376,34.3 				"/>
				<polygon class="st1" points="347.7,6 347.7,62.7 376,34.3 				"/>
			</g>
			<g>
				<polygon class="st1" points="404.4,122.6 404.4,122.6 404.4,65.9 404.4,65.9 376,94.3 				"/>
				<polygon class="st3" points="376,94.3 347.7,122.6 404.4,122.6 				"/>
				<polygon class="st1" points="347.7,65.9 347.7,122.6 376,94.3 				"/>
			</g>
			<g>
				<polygon class="st1" points="344.4,65.9 287.6,65.9 287.6,65.9 316.1,94.3 				"/>
				<polygon class="st3" points="287.6,65.9 287.6,122.6 316.1,94.3 				"/>
			</g>
			<polygon class="st2" points="389.8,56.6 353.7,56.6 347.7,62.7 404.4,62.7 376,34.3 371.6,38.6 			"/>
			<polygon class="st2" points="329.7,56.6 293.8,56.6 287.6,62.7 344.4,62.7 316.1,34.3 311.7,38.6 			"/>
			<polygon class="st2" points="329.7,116.6 293.8,116.6 287.6,122.6 344.4,122.6 316.1,94.3 311.7,98.7 			"/>
			<polygon class="st2" points="398.3,116.6 353.7,116.6 347.7,122.6 404.4,122.6 			"/>
			
				<rect x="373" y="127.2" transform="matrix(0.7071 -0.7071 0.7071 0.7071 18.0499 304.041)" class="st2" width="6.1" height="6.1"/>
			
				<rect x="331.7" y="91.3" transform="matrix(0.7071 -0.7071 0.7071 0.7071 31.3456 264.3874)" class="st2" width="6.1" height="6.1"/>
			
				<rect x="372.9" y="67.3" transform="matrix(0.7071 -0.7071 0.7071 0.7071 60.4004 286.4717)" class="st2" width="6.1" height="6.1"/>
		</g>
	</g>
</g>
</svg>
